<svg width="1022" height="707" viewBox="0 0 1022 707" fill="none" xmlns="http://www.w3.org/2000/svg">
<rect width="1022" height="707" fill="#F8FFFD"/>
<path opacity="0.1" d="M640.235 510.333C632.927 510.023 625.966 507.148 619.32 504.002C612.673 500.855 606.09 497.369 598.952 495.702C594.368 494.63 589.121 494.479 585.424 497.475C581.867 500.365 580.717 505.341 580.099 509.961C579.634 513.439 579.361 517.097 580.635 520.352C581.52 522.612 583.09 524.512 584.176 526.683C587.955 534.215 585.284 543.502 581.189 550.856C579.269 554.305 577.039 557.6 575.557 561.269C574.074 564.939 573.388 569.149 574.686 572.894C575.971 576.61 579.035 579.396 582.353 581.358C589.094 585.341 597.033 586.482 604.781 587.128C621.926 588.558 639.161 587.938 656.351 587.319C662.713 587.089 669.103 586.857 675.361 585.658C678.836 584.992 682.424 583.935 684.947 581.391C688.15 578.153 688.944 572.668 686.797 568.608C683.198 561.796 673.247 560.103 670.727 552.794C669.343 548.771 670.765 544.288 672.778 540.557C677.096 532.551 684.334 525.529 684.714 516.378C684.976 510.093 681.497 503.799 676.117 500.825C670.479 497.708 662.659 498.1 658.501 503.26C654.216 508.561 646.689 510.605 640.235 510.333Z" fill="#149F82"/>
<g clip-path="url(#clip0)">
<path opacity="0.1" d="M156.266 91.7736C143.635 91.2934 131.604 86.8353 120.116 81.9569C108.628 77.0784 97.2497 71.6727 84.9128 69.0884C76.9907 67.4259 67.921 67.1912 61.531 71.8371C55.383 76.3186 53.3962 84.0333 52.3286 91.1974C51.5244 96.5902 51.0521 102.263 53.2537 107.31C54.7838 110.814 57.4968 113.759 59.3743 117.126C65.9068 128.804 61.289 143.205 54.212 154.607C50.894 159.955 47.0394 165.064 44.4767 170.754C41.9141 176.443 40.7294 182.971 42.9719 188.778C45.193 194.54 50.4881 198.859 56.2242 201.903C67.8741 208.079 81.5968 209.848 94.9876 210.849C124.621 213.066 154.41 212.106 184.121 211.145C195.118 210.789 206.16 210.428 216.977 208.569C222.984 207.536 229.185 205.898 233.545 201.954C239.082 196.932 240.454 188.428 236.744 182.132C230.522 171.571 213.323 168.946 208.969 157.612C206.576 151.374 209.033 144.423 212.513 138.638C219.977 126.224 232.485 115.336 233.143 101.146C233.596 91.4023 227.583 81.6431 218.285 77.0314C208.54 72.1977 195.024 72.8059 187.838 80.8066C180.431 89.027 167.42 92.1961 156.266 91.7736Z" fill="#149F82"/>
<path opacity="0.1" d="M156.266 91.7736C143.635 91.2934 131.604 86.8353 120.116 81.9569C108.628 77.0784 97.2497 71.6727 84.9128 69.0884C76.9907 67.4259 67.921 67.1912 61.531 71.8371C55.383 76.3186 53.3962 84.0333 52.3286 91.1974C51.5244 96.5902 51.0521 102.263 53.2537 107.31C54.7838 110.814 57.4968 113.759 59.3743 117.126C65.9068 128.804 61.289 143.205 54.212 154.607C50.894 159.955 47.0394 165.064 44.4767 170.754C41.9141 176.443 40.7294 182.971 42.9719 188.778C45.193 194.54 50.4881 198.859 56.2242 201.903C67.8741 208.079 81.5968 209.848 94.9876 210.849C124.621 213.066 154.41 212.106 184.121 211.145C195.118 210.789 206.16 210.428 216.977 208.569C222.984 207.536 229.185 205.898 233.545 201.954C239.082 196.932 240.454 188.428 236.744 182.132C230.522 171.571 213.323 168.946 208.969 157.612C206.576 151.374 209.033 144.423 212.513 138.638C219.977 126.224 232.485 115.336 233.143 101.146C233.596 91.4023 227.583 81.6431 218.285 77.0314C208.54 72.1977 195.024 72.8059 187.838 80.8066C180.431 89.027 167.42 92.1961 156.266 91.7736Z" fill="#149F82"/>
<g opacity="0.9">
<path opacity="0.9" d="M161.519 164.129H160.944C160.775 164.129 160.637 164.254 160.637 164.407V172.688C160.637 172.841 160.775 172.965 160.944 172.965H161.519C161.688 172.965 161.826 172.841 161.826 172.688V164.407C161.826 164.254 161.688 164.129 161.519 164.129Z" fill="#3A3768"/>
<path opacity="0.9" d="M121.49 157.208H121.437C121.268 157.208 121.13 157.332 121.13 157.485V159.84C121.13 159.993 121.268 160.117 121.437 160.117H121.49C121.659 160.117 121.797 159.993 121.797 159.84V157.485C121.797 157.332 121.659 157.208 121.49 157.208Z" fill="#3A3768"/>
<path opacity="0.9" d="M121.549 162.533H121.413C121.243 162.533 121.105 162.658 121.105 162.811V167.319C121.105 167.472 121.243 167.596 121.413 167.596H121.549C121.719 167.596 121.857 167.472 121.857 167.319V162.811C121.857 162.658 121.719 162.533 121.549 162.533Z" fill="#3A3768"/>
<path opacity="0.9" d="M121.526 169.368H121.426C121.256 169.368 121.118 169.492 121.118 169.645V174.197C121.118 174.35 121.256 174.474 121.426 174.474H121.526C121.696 174.474 121.834 174.35 121.834 174.197V169.645C121.834 169.492 121.696 169.368 121.526 169.368Z" fill="#3A3768"/>
<path opacity="0.9" d="M156.047 147.596H126.74C123.851 147.596 121.508 149.708 121.508 152.314V215.768C121.508 218.374 123.851 220.486 126.74 220.486H156.047C158.937 220.486 161.279 218.374 161.279 215.768V152.314C161.279 149.708 158.937 147.596 156.047 147.596Z" fill="#3A3768"/>
<path opacity="0.9" d="M142.59 149.771H138.075C137.788 149.771 137.556 149.981 137.556 150.24V150.319C137.556 150.578 137.788 150.788 138.075 150.788H142.59C142.877 150.788 143.109 150.578 143.109 150.319V150.24C143.109 149.981 142.877 149.771 142.59 149.771Z" fill="#E6E8EC"/>
<path opacity="0.9" d="M144.589 150.858C144.943 150.858 145.229 150.6 145.229 150.281C145.229 149.962 144.943 149.704 144.589 149.704C144.236 149.704 143.949 149.962 143.949 150.281C143.949 150.6 144.236 150.858 144.589 150.858Z" fill="#E6E8EC"/>
</g>
<path opacity="0.1" d="M77.4591 227.793C99.0141 227.793 116.488 225.846 116.488 223.444C116.488 221.042 99.0141 219.095 77.4591 219.095C55.9041 219.095 38.4302 221.042 38.4302 223.444C38.4302 225.846 55.9041 227.793 77.4591 227.793Z" fill="#149F82"/>
<path opacity="0.1" d="M164.241 240C174.339 240 182.525 239.088 182.525 237.962C182.525 236.836 174.339 235.924 164.241 235.924C154.143 235.924 145.957 236.836 145.957 237.962C145.957 239.088 154.143 240 164.241 240Z" fill="#149F82"/>
<path opacity="0.1" d="M226.716 229.731C236.814 229.731 245 228.818 245 227.693C245 226.567 236.814 225.655 226.716 225.655C216.618 225.655 208.432 226.567 208.432 227.693C208.432 228.818 216.618 229.731 226.716 229.731Z" fill="#149F82"/>
<path d="M156.008 150.34H151.372V150.832C151.372 151.45 151.092 152.042 150.595 152.479C150.098 152.915 149.424 153.161 148.721 153.161H133.927C133.224 153.161 132.55 152.915 132.053 152.479C131.556 152.042 131.277 151.45 131.277 150.832V150.34H126.922C126.5 150.34 126.081 150.414 125.691 150.556C125.3 150.698 124.945 150.906 124.646 151.169C124.348 151.432 124.111 151.744 123.949 152.087C123.787 152.43 123.704 152.798 123.704 153.169V216.129C123.704 216.5 123.787 216.868 123.949 217.211C124.111 217.554 124.348 217.866 124.646 218.129C124.945 218.392 125.3 218.6 125.691 218.742C126.081 218.884 126.5 218.957 126.922 218.957H156.008C156.861 218.957 157.68 218.659 158.284 218.129C158.888 217.598 159.227 216.879 159.227 216.129V153.169C159.227 152.419 158.888 151.699 158.284 151.169C157.68 150.638 156.861 150.34 156.008 150.34V150.34Z" fill="#149F82"/>
<path d="M38.8479 214.263C43.1822 214.263 46.6959 213.613 46.6959 212.812C46.6959 212.01 43.1822 211.361 38.8479 211.361C34.5136 211.361 31 212.01 31 212.812C31 213.613 34.5136 214.263 38.8479 214.263Z" fill="#149F82"/>
<path d="M42.0917 210.437C42.4505 210.118 42.712 209.688 42.8412 209.203C42.9368 208.712 42.7456 208.136 42.3181 207.946C41.838 207.743 41.3247 208.108 40.9363 208.475C40.5479 208.843 40.101 209.263 39.5916 209.184C39.8525 208.924 40.0473 208.594 40.1571 208.227C40.2669 207.861 40.2879 207.469 40.2181 207.09C40.197 206.933 40.1362 206.785 40.0424 206.664C39.777 206.352 39.2929 206.487 38.9729 206.732C37.958 207.513 37.6749 209.02 37.671 210.377C37.5676 209.886 37.6535 209.376 37.6515 208.883C37.6496 208.39 37.5227 207.816 37.1363 207.556C36.8966 207.415 36.6275 207.345 36.3556 207.353C35.8989 207.336 35.3914 207.385 35.0791 207.75C34.6888 208.202 34.7922 208.964 35.1299 209.457C35.4675 209.95 35.9789 210.268 36.4493 210.614C36.8281 210.859 37.1511 211.196 37.3939 211.598C37.4227 211.653 37.4462 211.712 37.4642 211.773H40.3235C40.9654 211.417 41.5603 210.967 42.0917 210.437V210.437Z" fill="#149F82"/>
<path d="M181.046 195.613C181.046 196.467 181.133 197.152 181.241 197.152C181.348 197.152 181.436 196.463 181.436 195.613C181.436 194.764 181.327 195.165 181.219 195.165C181.112 195.165 181.046 194.76 181.046 195.613Z" fill="#FFD037"/>
<path d="M179.962 196.621C180.643 197.026 181.239 197.274 181.289 197.169C181.34 197.065 180.831 196.653 180.148 196.245C179.465 195.837 179.734 196.136 179.683 196.245C179.632 196.354 179.287 196.213 179.962 196.621Z" fill="#FFD037"/>
<path opacity="0.2" d="M197.204 213.612C191.874 213.659 184.818 212.703 183.399 211.758C182.316 211.038 181.887 208.454 181.742 207.261H181.584C181.584 207.261 181.883 211.425 183.304 212.37C184.725 213.316 191.778 214.272 197.108 214.225C198.646 214.21 199.179 213.612 199.15 212.731C198.935 213.266 198.35 213.602 197.204 213.612Z" fill="black"/>
<path opacity="0.3" d="M160.314 172.115H145.085V188.767H160.314V172.115Z" fill="#3A3768"/>
<path opacity="0.3" d="M137.869 150.134H122.64V166.786H137.869V150.134Z" fill="#3A3768"/>
<path opacity="0.3" d="M139.333 193.72H124.104V210.373H139.333V193.72Z" fill="#3A3768"/>
<path d="M131.276 114.687L130.736 115.276C130.913 115.47 131.054 115.7 131.15 115.953C131.246 116.206 131.295 116.478 131.295 116.752C131.295 117.026 131.246 117.297 131.15 117.551C131.054 117.804 130.913 118.034 130.736 118.228L131.276 118.821C131.777 118.273 132.059 117.529 132.059 116.754C132.059 115.979 131.777 115.235 131.276 114.687V114.687Z" fill="#149F82"/>
<path d="M157.262 166.111L145.969 177.284L156.187 189.632L167.48 178.459L157.262 166.111Z" fill="white"/>
<path d="M152.314 175.583L153.419 174.486L159.469 181.778L158.357 182.879L152.314 175.583ZM154.923 182.412L156.036 181.313L157.793 183.447L156.68 184.546L154.923 182.412ZM157.254 177.896L158.366 176.795L161.132 180.139L160.021 181.238L157.254 177.896ZM157.412 174.422L158.524 173.321L162.801 178.487L161.688 179.589L157.412 174.422Z" fill="#149F82"/>
<path d="M141.677 160.689H126.448V177.341H141.677V160.689Z" fill="white"/>
<path opacity="0.1" d="M215.935 173.876C215.839 173.878 215.744 173.904 215.659 173.951C215.573 173.998 215.498 174.066 215.439 174.149C215.316 174.368 215.245 174.618 215.232 174.874C215.113 175.695 214.848 176.483 214.451 177.192" fill="black"/>
<path opacity="0.1" d="M216.618 174.46C216.485 174.463 216.355 174.504 216.242 174.579C216.128 174.654 216.034 174.76 215.97 174.887C215.881 175.117 215.825 175.362 215.806 175.611C215.692 176.162 215.47 176.679 215.156 177.128" fill="black"/>
<path d="M90.7016 188.057C90.8148 189.405 89.8839 190.711 90.1551 192.03C90.2137 192.312 90.3249 192.579 90.3659 192.863C90.4772 193.646 90.0498 194.388 89.6418 195.044L86.1404 200.665C85.9986 200.911 85.8302 201.138 85.6388 201.341C84.9674 201.981 83.9642 201.924 83.084 202.118C82.4662 202.256 81.8831 202.539 81.3743 202.946C81.3509 202.965 81.3354 202.994 81.331 203.025C81.3267 203.057 81.3338 203.089 81.3509 203.115C81.4964 203.331 81.6891 203.504 81.9113 203.618C82.1336 203.732 82.3783 203.783 82.6234 203.768C82.7151 203.9 82.6234 204.094 82.4965 204.195C82.3014 204.337 82.0496 204.374 82.0125 204.724C81.9993 204.845 82.0218 204.968 82.0769 205.074C82.2179 205.31 82.4378 205.477 82.6898 205.539C83.9018 205.944 85.2133 205.234 86.119 204.259C87.0246 203.283 87.6803 202.067 88.5703 201.079C89.0641 200.535 89.6243 200.065 90.1317 199.536C91.1466 198.482 91.9332 197.188 92.6944 195.908C92.9424 195.535 93.1299 195.117 93.2486 194.674C93.3423 194.235 93.2994 193.772 93.4087 193.336C93.5492 192.769 93.9318 192.314 94.2479 191.842C94.8705 190.908 95.2843 189.762 95.2023 188.609C95.1204 187.457 94.4685 186.317 93.4731 185.927C93.1629 185.79 92.8205 185.767 92.4972 185.861C92.0893 185.999 91.7887 186.369 91.5096 186.714L90.8461 187.555C90.6781 187.738 90.5454 187.956 90.4557 188.195C90.413 188.316 90.4032 188.448 90.4275 188.575C90.4517 188.702 90.509 188.818 90.5923 188.91" fill="#FBBEBE"/>
<path opacity="0.05" d="M90.7016 188.057C90.8148 189.405 89.8839 190.711 90.1551 192.03C90.2137 192.312 90.3249 192.579 90.3659 192.863C90.4772 193.646 90.0498 194.388 89.6418 195.044L86.1404 200.665C85.9986 200.911 85.8302 201.138 85.6388 201.341C84.9674 201.981 83.9642 201.924 83.084 202.118C82.4662 202.256 81.8831 202.539 81.3743 202.946C81.3509 202.965 81.3354 202.994 81.331 203.025C81.3267 203.057 81.3338 203.089 81.3509 203.115C81.4964 203.331 81.6891 203.504 81.9113 203.618C82.1336 203.732 82.3783 203.783 82.6234 203.768C82.7151 203.9 82.6234 204.094 82.4965 204.195C82.3014 204.337 82.0496 204.374 82.0125 204.724C81.9993 204.845 82.0218 204.968 82.0769 205.074C82.2179 205.31 82.4378 205.477 82.6898 205.539C83.9018 205.944 85.2133 205.234 86.119 204.259C87.0246 203.283 87.6803 202.067 88.5703 201.079C89.0641 200.535 89.6243 200.065 90.1317 199.536C91.1466 198.482 91.9332 197.188 92.6944 195.908C92.9424 195.535 93.1299 195.117 93.2486 194.674C93.3423 194.235 93.2994 193.772 93.4087 193.336C93.5492 192.769 93.9318 192.314 94.2479 191.842C94.8705 190.908 95.2843 189.762 95.2023 188.609C95.1204 187.457 94.4685 186.317 93.4731 185.927C93.1629 185.79 92.8205 185.767 92.4972 185.861C92.0893 185.999 91.7887 186.369 91.5096 186.714L90.8461 187.555C90.6781 187.738 90.5454 187.956 90.4557 188.195C90.413 188.316 90.4032 188.448 90.4275 188.575C90.4517 188.702 90.509 188.818 90.5923 188.91" fill="black"/>
<path d="M64.0292 193.787C64.2244 194.461 64.4196 195.135 64.6557 195.793C65.0873 196.932 65.6311 198.017 66.2776 199.028C66.6939 199.693 67.1415 200.334 67.6185 200.949C68.2157 201.719 68.8832 202.494 69.094 203.477C69.2169 204.045 69.176 204.641 69.2267 205.221C69.2774 205.801 69.4512 206.418 69.8805 206.766C70.2066 206.987 70.5758 207.12 70.9579 207.154C71.2272 207.201 71.5649 207.216 71.7054 206.96C71.7546 206.856 71.7801 206.74 71.7796 206.623L71.8459 205.769C71.8596 205.586 71.9181 205.343 72.086 205.343C72.2538 205.343 72.3397 205.58 72.4763 205.688C72.5272 205.718 72.5832 205.737 72.6408 205.742C72.6984 205.748 72.7564 205.74 72.8113 205.72C72.8662 205.7 72.9167 205.668 72.9598 205.626C73.0029 205.584 73.0376 205.532 73.0619 205.475C73.1492 205.236 73.1548 204.971 73.0775 204.728C72.9609 204.245 72.7523 203.794 72.4654 203.406C72.1785 203.017 71.8198 202.699 71.4126 202.472C71.1296 202.345 70.8579 202.19 70.6007 202.009C70.3396 201.762 70.1231 201.464 69.9625 201.13C68.487 198.473 67.0037 195.795 65.9614 192.912C65.7562 192.395 65.6176 191.85 65.5496 191.292C65.5285 190.722 65.55 190.151 65.614 189.585C65.6751 188.56 65.5881 187.532 65.3564 186.537C65.3057 186.276 65.2153 186.025 65.089 185.797C64.6616 185.084 63.6525 184.979 63.0163 185.47C62.7822 185.667 62.5881 185.916 62.4463 186.199C62.3045 186.483 62.2182 186.796 62.1926 187.118C62.1458 187.692 62.4503 188.291 62.6045 188.825C63.082 190.478 63.5569 192.132 64.0292 193.787Z" fill="#A1616A"/>
<path opacity="0.05" d="M64.0292 193.787C64.2244 194.461 64.4196 195.135 64.6557 195.793C65.0873 196.932 65.6311 198.017 66.2776 199.028C66.6939 199.693 67.1415 200.334 67.6185 200.949C68.2157 201.719 68.8832 202.494 69.094 203.477C69.2169 204.045 69.176 204.641 69.2267 205.221C69.2774 205.801 69.4512 206.418 69.8805 206.766C70.2066 206.987 70.5758 207.12 70.9579 207.154C71.2272 207.201 71.5649 207.216 71.7054 206.96C71.7546 206.856 71.7801 206.74 71.7796 206.623L71.8459 205.769C71.8596 205.586 71.9181 205.343 72.086 205.343C72.2538 205.343 72.3397 205.58 72.4763 205.688C72.5272 205.718 72.5832 205.737 72.6408 205.742C72.6984 205.748 72.7564 205.74 72.8113 205.72C72.8662 205.7 72.9167 205.668 72.9598 205.626C73.0029 205.584 73.0376 205.532 73.0619 205.475C73.1492 205.236 73.1548 204.971 73.0775 204.728C72.9609 204.245 72.7523 203.794 72.4654 203.406C72.1785 203.017 71.8198 202.699 71.4126 202.472C71.1296 202.345 70.8579 202.19 70.6007 202.009C70.3396 201.762 70.1231 201.464 69.9625 201.13C68.487 198.473 67.0037 195.795 65.9614 192.912C65.7562 192.395 65.6176 191.85 65.5496 191.292C65.5285 190.722 65.55 190.151 65.614 189.585C65.6751 188.56 65.5881 187.532 65.3564 186.537C65.3057 186.276 65.2153 186.025 65.089 185.797C64.6616 185.084 63.6525 184.979 63.0163 185.47C62.7822 185.667 62.5881 185.916 62.4463 186.199C62.3045 186.483 62.2182 186.796 62.1926 187.118C62.1458 187.692 62.4503 188.291 62.6045 188.825C63.082 190.478 63.5569 192.132 64.0292 193.787Z" fill="black"/>
<path d="M93.6468 219.127C92.8818 219.637 91.9293 219.667 91.0393 219.553C90.8968 219.534 90.727 219.521 90.6353 219.643C90.5026 219.818 90.6587 220.07 90.8207 220.219C91.3461 220.649 91.9626 220.926 92.6124 221.024C93.1944 221.113 93.7814 221.155 94.369 221.152C95.9675 221.182 97.5737 221.209 99.1566 220.958C99.2483 220.951 99.3375 220.923 99.4181 220.874C99.5184 220.795 99.588 220.678 99.6133 220.546C99.6517 220.316 99.6332 220.08 99.5598 219.86C99.4863 219.641 99.3606 219.448 99.1956 219.299C98.8629 219.009 98.4846 218.787 98.0792 218.644L96.6896 218.053C96.3637 217.914 95.8386 217.545 95.4854 217.575C94.8296 217.622 94.1992 218.772 93.6468 219.127Z" fill="#3F3D56"/>
<path d="M97.1385 222.697C96.4983 223.324 95.6654 223.664 94.8061 223.649C94.5876 223.649 94.2831 223.694 94.2831 223.933C94.2862 224.004 94.3079 224.073 94.3455 224.131C94.6177 224.626 95.0472 224.994 95.5517 225.164C96.0283 225.288 96.5207 225.322 97.0077 225.264L98.4325 225.183C98.7018 225.168 98.9731 225.153 99.2405 225.117C99.5079 225.081 99.7987 225.021 100.078 224.974C100.765 224.868 101.459 224.832 102.152 224.867C102.242 224.887 102.335 224.883 102.424 224.857C102.513 224.831 102.595 224.784 102.664 224.718C102.791 224.543 102.717 224.291 102.676 224.078C102.59 223.627 102.676 223.154 102.596 222.699C102.459 221.905 101.834 221.295 101.141 221.007C100.501 220.74 99.3654 220.435 98.7584 220.879C98.1065 221.35 97.7142 222.127 97.1385 222.697Z" fill="#3F3D56"/>
<path d="M94.3241 202.538C93.7385 203.381 93.153 204.355 93.2896 205.396C93.3677 205.957 93.6546 206.452 93.8654 206.973C94.1303 207.687 94.3265 208.43 94.4509 209.188C94.6676 210.292 94.8842 211.397 95.0189 212.515C95.1684 213.782 95.2109 215.06 95.1457 216.335C95.1282 216.643 95.0969 216.975 94.9018 217.189C94.8237 217.274 94.7222 217.345 94.689 217.46C94.6679 217.569 94.6839 217.683 94.7339 217.78C95.0915 218.581 95.7116 219.205 96.471 219.528C97.2249 219.844 98.0251 220.007 98.8326 220.01C98.9397 220.024 99.0482 220.008 99.1487 219.965C99.2571 219.894 99.3424 219.787 99.3927 219.66C99.9782 218.444 99.6523 216.975 99.6621 215.605C99.6621 214.459 99.9158 213.324 99.8709 212.178C99.8338 211.26 99.6094 210.364 99.5274 209.449C99.3927 207.955 99.6445 206.44 99.8963 204.956C100.091 203.821 100.287 202.684 100.531 201.559C100.655 200.866 100.881 200.2 101.202 199.587C101.475 199.115 101.846 198.721 102.158 198.277C103.022 197.037 103.406 195.476 103.228 193.93C103.208 193.776 101.218 194.48 101.046 194.57C100.328 194.9 99.6678 195.362 99.0941 195.938C98.6335 196.416 98.2724 197.056 97.8684 197.594C97.2985 198.352 96.7377 199.115 96.186 199.882C95.5563 200.761 94.9356 201.646 94.3241 202.538Z" fill="#464353"/>
<path opacity="0.05" d="M94.3241 202.538C93.7385 203.381 93.153 204.355 93.2896 205.396C93.3677 205.957 93.6546 206.452 93.8654 206.973C94.1303 207.687 94.3265 208.43 94.4509 209.188C94.6676 210.292 94.8842 211.397 95.0189 212.515C95.1684 213.782 95.2109 215.06 95.1457 216.335C95.1282 216.643 95.0969 216.975 94.9018 217.189C94.8237 217.274 94.7222 217.345 94.689 217.46C94.6679 217.569 94.6839 217.683 94.7339 217.78C95.0915 218.581 95.7116 219.205 96.471 219.528C97.2249 219.844 98.0251 220.007 98.8326 220.01C98.9397 220.024 99.0482 220.008 99.1487 219.965C99.2571 219.894 99.3424 219.787 99.3927 219.66C99.9782 218.444 99.6523 216.975 99.6621 215.605C99.6621 214.459 99.9158 213.324 99.8709 212.178C99.8338 211.26 99.6094 210.364 99.5274 209.449C99.3927 207.955 99.6445 206.44 99.8963 204.956C100.091 203.821 100.287 202.684 100.531 201.559C100.655 200.866 100.881 200.2 101.202 199.587C101.475 199.115 101.846 198.721 102.158 198.277C103.022 197.037 103.406 195.476 103.228 193.93C103.208 193.776 101.218 194.48 101.046 194.57C100.328 194.9 99.6678 195.362 99.0941 195.938C98.6335 196.416 98.2724 197.056 97.8684 197.594C97.2985 198.352 96.7377 199.115 96.186 199.882C95.5563 200.761 94.9356 201.646 94.3241 202.538Z" fill="black"/>
<path d="M98.5515 196.055C98.6764 196.708 99.2561 197.207 99.2717 197.875C99.2854 198.409 98.9379 198.857 98.6862 199.316C98.4496 199.79 98.2498 200.286 98.0889 200.797C97.6149 202.126 97.0267 203.403 96.3324 204.611C95.9986 205.191 95.6239 205.821 95.702 206.501C95.7543 206.819 95.8567 207.125 96.0045 207.404L97.0077 209.583C97.2276 210.018 97.3992 210.48 97.519 210.959C97.6069 211.373 97.6147 211.813 97.6654 212.223C97.8235 213.559 98.3954 214.903 98.0558 216.199C98.0265 216.31 97.9191 216.444 97.8391 216.367C98.1709 217.044 98.4383 217.727 98.411 218.501C98.3993 218.905 98.2861 219.323 98.4227 219.698C98.4991 219.839 98.5508 219.994 98.5749 220.155C98.5749 220.264 98.5281 220.369 98.5183 220.477C98.491 220.785 98.7486 221.043 99.018 221.141C99.2873 221.239 99.5801 221.233 99.8514 221.32C100.374 221.491 100.745 221.982 101.194 222.323C101.647 222.667 102.183 222.858 102.734 222.872C102.812 222.881 102.891 222.864 102.96 222.823C103 222.785 103.031 222.739 103.053 222.687C103.075 222.635 103.087 222.579 103.087 222.522C103.111 222.249 103.074 221.973 102.977 221.72C102.881 221.466 102.729 221.243 102.535 221.069C102.454 221.008 102.387 220.928 102.34 220.834C102.315 220.749 102.308 220.659 102.32 220.571C102.402 219.373 102.383 218.169 102.262 216.975C102.209 216.597 102.192 216.214 102.211 215.832C102.269 215.518 102.297 215.198 102.295 214.878C102.233 214.565 102.144 214.26 102.028 213.966C101.873 213.422 101.916 212.837 101.901 212.259C101.842 211.272 101.695 210.293 101.46 209.338C101.408 208.952 101.265 208.589 101.044 208.283C100.835 208.044 100.497 207.818 100.577 207.5C100.622 207.382 100.688 207.276 100.773 207.189C100.87 207.056 100.941 206.903 100.983 206.739C101.024 206.575 101.034 206.403 101.013 206.235C101.1 206.259 101.193 206.249 101.275 206.207C101.357 206.165 101.423 206.093 101.462 206.004C103.12 205.107 104.388 203.53 104.99 201.616C105.025 201.478 105.078 201.347 105.148 201.226C105.299 200.995 105.562 200.895 105.794 200.767C106.524 200.366 107.028 199.613 107.49 198.876C107.782 198.465 108.004 198 108.146 197.504C108.209 197.179 108.24 196.847 108.236 196.514L108.277 194.807C108.285 194.694 108.275 194.581 108.248 194.472C108.208 194.369 108.15 194.277 108.078 194.198C107.632 193.685 107.048 193.341 106.411 193.217C105.984 193.134 105.547 193.148 105.113 193.11C104.274 193.033 103.445 192.749 102.603 192.816C101.284 192.922 100.109 193.923 99.4805 195.199C99.2502 195.656 99.0199 196.04 98.5515 196.055Z" fill="#464353"/>
<path d="M54.7565 222.191C55.0446 222.3 55.3508 222.34 55.6543 222.309C55.6758 222.037 56.0095 221.978 56.2574 221.991C56.3806 221.984 56.5033 222.013 56.6126 222.076C56.6751 222.119 56.7219 222.183 56.7824 222.227C56.8901 222.292 57.0109 222.326 57.1337 222.326L58.4258 222.445C59.0015 222.498 59.5968 222.548 60.1394 222.321C60.2475 222.286 60.3434 222.216 60.4146 222.121C60.561 221.892 60.4146 221.564 60.2194 221.397C60.0242 221.231 59.7569 221.154 59.5539 220.983C59.105 220.61 59.0445 219.916 58.8064 219.353C58.6395 218.999 58.4322 218.67 58.1896 218.373C58.0134 218.118 57.8081 217.889 57.5787 217.69C57.0615 217.281 56.4643 217.289 55.8573 217.232C55.4279 217.189 55.0239 217.161 54.7155 217.577C54.3349 218.094 54.4872 219.135 54.5106 219.752C54.5337 220.571 54.616 221.386 54.7565 222.191V222.191Z" fill="#514E7F"/>
<path opacity="0.05" d="M54.7565 222.191C55.0446 222.3 55.3508 222.34 55.6543 222.309C55.6758 222.037 56.0095 221.978 56.2574 221.991C56.3806 221.984 56.5033 222.013 56.6126 222.076C56.6751 222.119 56.7219 222.183 56.7824 222.227C56.8901 222.292 57.0109 222.326 57.1337 222.326L58.4258 222.445C59.0015 222.498 59.5968 222.548 60.1394 222.321C60.2475 222.286 60.3434 222.216 60.4146 222.121C60.561 221.892 60.4146 221.564 60.2194 221.397C60.0242 221.231 59.7569 221.154 59.5539 220.983C59.105 220.61 59.0445 219.916 58.8064 219.353C58.6395 218.999 58.4322 218.67 58.1896 218.373C58.0134 218.118 57.8081 217.889 57.5787 217.69C57.0615 217.281 56.4643 217.289 55.8573 217.232C55.4279 217.189 55.0239 217.161 54.7155 217.577C54.3349 218.094 54.4872 219.135 54.5106 219.752C54.5337 220.571 54.616 221.386 54.7565 222.191V222.191Z" fill="black"/>
<path d="M55.2796 194.73C54.8892 194.869 54.7136 195.406 54.7858 195.855C54.858 196.303 55.1039 196.687 55.3069 197.082C55.8807 198.206 56.1305 199.493 56.6126 200.667C56.9737 201.544 57.4616 202.355 57.8188 203.228C58.176 204.101 58.4043 205.099 58.1799 206.032C58.0745 206.487 57.8715 206.905 57.7349 207.349C57.6014 207.836 57.5138 208.336 57.4733 208.843C57.2987 210.554 57.2674 212.28 57.3796 213.998C57.3815 214.209 57.422 214.416 57.4987 214.609C57.5787 214.78 57.7193 214.959 57.6509 215.136C57.6236 215.206 57.5651 215.258 57.5358 215.328C57.4538 215.524 57.6197 215.729 57.77 215.868C57.7432 215.92 57.7069 215.967 57.6633 216.003C57.6197 216.04 57.5696 216.067 57.5163 216.081C57.6249 216.157 57.7085 216.269 57.7545 216.4C57.8006 216.531 57.8067 216.676 57.7719 216.811C57.6373 216.832 57.6295 217.057 57.7153 217.174C57.8012 217.291 57.932 217.366 57.9925 217.498C58.0284 217.608 58.0247 217.728 57.9823 217.834C57.9398 217.94 57.8618 218.025 57.7641 218.07C57.5659 218.155 57.3491 218.172 57.1415 218.121C56.7886 218.068 56.4402 217.985 56.0993 217.872C55.9843 217.841 55.8757 217.787 55.7792 217.712C55.6073 217.529 55.5048 217.282 55.4923 217.02C55.4126 216.312 55.3884 215.599 55.4201 214.886C55.4767 211.438 55.4201 207.985 55.2835 204.538C55.2269 203.151 54.8463 201.798 54.3545 200.517C54.0835 199.86 53.7812 199.219 53.4489 198.597C52.7423 197.176 52.1139 195.609 52.2778 193.998C52.2954 193.825 52.3539 193.616 52.5101 193.588C52.5715 193.581 52.6336 193.592 52.6896 193.62C53.0162 193.788 53.3324 193.979 53.6362 194.192C54.1362 194.514 54.7001 194.699 55.2796 194.73V194.73Z" fill="#464353"/>
<path opacity="0.05" d="M55.2796 194.73C54.8892 194.869 54.7136 195.406 54.7858 195.855C54.858 196.303 55.1039 196.687 55.3069 197.082C55.8807 198.206 56.1305 199.493 56.6126 200.667C56.9737 201.544 57.4616 202.355 57.8188 203.228C58.176 204.101 58.4043 205.099 58.1799 206.032C58.0745 206.487 57.8715 206.905 57.7349 207.349C57.6014 207.836 57.5138 208.336 57.4733 208.843C57.2987 210.554 57.2674 212.28 57.3796 213.998C57.3815 214.209 57.422 214.416 57.4987 214.609C57.5787 214.78 57.7193 214.959 57.6509 215.136C57.6236 215.206 57.5651 215.258 57.5358 215.328C57.4538 215.524 57.6197 215.729 57.77 215.868C57.7432 215.92 57.7069 215.967 57.6633 216.003C57.6197 216.04 57.5696 216.067 57.5163 216.081C57.6249 216.157 57.7085 216.269 57.7545 216.4C57.8006 216.531 57.8067 216.676 57.7719 216.811C57.6373 216.832 57.6295 217.057 57.7153 217.174C57.8012 217.291 57.932 217.366 57.9925 217.498C58.0284 217.608 58.0247 217.728 57.9823 217.834C57.9398 217.94 57.8618 218.025 57.7641 218.07C57.5659 218.155 57.3491 218.172 57.1415 218.121C56.7886 218.068 56.4402 217.985 56.0993 217.872C55.9843 217.841 55.8757 217.787 55.7792 217.712C55.6073 217.529 55.5048 217.282 55.4923 217.02C55.4126 216.312 55.3884 215.599 55.4201 214.886C55.4767 211.438 55.4201 207.985 55.2835 204.538C55.2269 203.151 54.8463 201.798 54.3545 200.517C54.0835 199.86 53.7812 199.219 53.4489 198.597C52.7423 197.176 52.1139 195.609 52.2778 193.998C52.2954 193.825 52.3539 193.616 52.5101 193.588C52.5715 193.581 52.6336 193.592 52.6896 193.62C53.0162 193.788 53.3324 193.979 53.6362 194.192C54.1362 194.514 54.7001 194.699 55.2796 194.73V194.73Z" fill="black"/>
<path d="M49.9475 190.536C49.7415 190.393 49.5045 190.311 49.2605 190.3C48.9793 190.348 48.7184 190.49 48.5129 190.705C48.2523 190.925 48.0046 191.163 47.7713 191.418C47.2871 191.982 46.9496 192.677 46.7938 193.432C46.638 194.186 46.6696 194.973 46.8852 195.709C47.1214 196.476 47.5488 197.152 47.9704 197.814L48.8291 199.162C50.1387 201.22 51.4503 203.277 52.8224 205.285C52.8237 205.333 52.8387 205.379 52.8653 205.418C52.8918 205.456 52.9287 205.484 52.9707 205.498C53.0215 205.513 53.082 205.511 53.1132 205.556C53.127 205.584 53.1331 205.616 53.1307 205.648C53.126 205.794 53.1003 205.938 53.0546 206.075C53.0322 206.12 53.0266 206.172 53.039 206.222C53.082 206.335 53.2713 206.271 53.3298 206.378C53.3708 206.446 53.3298 206.538 53.2674 206.591C53.2049 206.644 53.1503 206.717 53.16 206.804C53.1698 206.892 53.3005 206.973 53.2947 207.08C53.2947 207.14 53.2479 207.184 53.2147 207.231C53.1679 207.306 53.1465 207.396 53.1544 207.486C53.1622 207.576 53.1988 207.661 53.2576 207.724C53.3474 208.706 52.8673 209.634 52.7638 210.616C52.6096 212.159 53.2479 213.666 53.3259 215.215C53.322 215.389 53.3519 215.562 53.4138 215.723C53.5465 215.99 53.8861 216.15 53.8744 216.455C53.8503 216.58 53.8183 216.703 53.7787 216.824C53.7812 217.001 53.7982 217.177 53.8295 217.351C53.8295 217.528 53.6928 217.739 53.5426 217.671C53.6558 218.081 53.756 218.494 53.8431 218.911L56.8488 219.182C56.8807 218.886 56.8715 218.587 56.8215 218.294C56.759 217.978 56.6263 217.682 56.5599 217.366C56.5157 217.211 56.5034 217.048 56.524 216.887C56.5446 216.727 56.5975 216.573 56.679 216.438C56.6003 216.439 56.5237 216.41 56.4629 216.355C56.4021 216.3 56.3611 216.224 56.3472 216.139C56.3199 215.97 56.3199 215.798 56.3472 215.629C56.4272 214.775 56.0974 213.922 56.1071 213.068C56.1169 212.389 56.3335 211.738 56.4448 211.073C56.679 209.647 56.435 208.1 57.0147 206.804C57.366 206.019 57.852 205.148 57.4577 204.389C57.2626 204.013 56.921 203.748 56.6985 203.403C56.5161 203.071 56.3787 202.711 56.2906 202.336C55.8261 200.765 55.0786 199.316 54.4208 197.829C54.2391 197.455 54.1039 197.057 54.0188 196.644C53.9722 196.282 53.9559 195.917 53.97 195.552C53.9681 194.895 53.931 194.24 53.8587 193.588C53.8448 193.302 53.77 193.024 53.6402 192.775C53.5128 192.588 53.3538 192.429 53.1717 192.308C52.1861 191.574 51.0112 191.149 49.9475 190.536Z" fill="#464353"/>
<path d="M53.5484 223.395C53.8365 223.504 54.1427 223.544 54.4462 223.512C54.4696 223.241 54.8014 223.181 55.0493 223.194C55.1694 223.19 55.2885 223.22 55.3947 223.282C55.4572 223.324 55.504 223.388 55.5665 223.433C55.674 223.498 55.7949 223.532 55.9178 223.531L57.2079 223.651C57.7837 223.704 58.3789 223.753 58.9235 223.527C59.0308 223.491 59.1259 223.422 59.1967 223.326C59.3431 223.098 59.1967 222.769 59.0015 222.603C58.8064 222.437 58.539 222.36 58.334 222.189C57.8871 221.816 57.8246 221.122 57.5865 220.559C57.4197 220.205 57.2124 219.876 56.9698 219.579C56.7943 219.324 56.5897 219.094 56.3608 218.896C55.8417 218.486 55.2464 218.495 54.6394 218.437C54.2081 218.395 53.8041 218.367 53.4976 218.783C53.1073 219.299 53.2673 220.341 53.2908 220.958C53.3189 221.776 53.4051 222.591 53.5484 223.395V223.395Z" fill="#514E7F"/>
<path d="M85.0748 198.642H69.8454V215.294H85.0748V198.642Z" fill="white"/>
<path d="M66.867 184.847C68.5108 184.847 69.8434 183.39 69.8434 181.593C69.8434 179.795 68.5108 178.338 66.867 178.338C65.2232 178.338 63.8906 179.795 63.8906 181.593C63.8906 183.39 65.2232 184.847 66.867 184.847Z" fill="#A1616A"/>
<path d="M64.0605 182.557C63.633 182.96 63.0221 182.984 62.462 183.052C61.2651 183.186 60.1001 183.554 59.023 184.141C58.8763 184.211 58.7437 184.313 58.6327 184.439C58.5385 184.578 58.472 184.736 58.4375 184.905C58.3358 185.271 58.2974 185.654 58.3243 186.036C58.3634 186.407 58.4604 186.768 58.6112 187.103C59.0244 188.038 59.6626 188.834 60.4576 189.403C60.5925 189.511 60.7447 189.591 60.9065 189.638C61.2968 189.728 61.6774 189.478 62.0619 189.367C62.4137 189.267 62.7844 189.281 63.1295 189.405C63.4535 189.523 63.795 189.738 64.1053 189.595C64.3067 189.472 64.4636 189.277 64.5503 189.043C64.8546 188.412 65.1256 187.763 65.3623 187.098C65.4476 186.841 65.546 186.589 65.657 186.343C66.0024 185.624 66.5997 185.063 66.8963 184.324C66.9264 184.267 66.9444 184.203 66.9492 184.138C66.9539 184.072 66.9452 184.006 66.9237 183.944C66.8687 183.861 66.7927 183.797 66.7051 183.761C66.2657 183.486 65.8653 183.142 65.5164 182.741C65.3213 182.527 64.9602 181.981 64.6792 181.932C64.3708 181.887 64.2751 182.357 64.0605 182.557Z" fill="#A1616A"/>
<path d="M64.1307 189.171C63.7853 189.352 63.3793 189.271 63.0046 189.186C62.0404 188.972 61.0665 188.742 60.1746 188.285C59.8956 188.17 59.6538 187.967 59.4797 187.702C59.3695 187.476 59.3031 187.228 59.2846 186.973L59.1206 185.763C59.064 185.336 59.1636 184.947 59.1714 184.52C59.1776 184.473 59.1751 184.424 59.1641 184.378C59.153 184.331 59.1336 184.288 59.107 184.249C59.0525 184.2 58.9823 184.176 58.9118 184.183C58.4648 184.183 58.1955 184.702 57.8813 185.05C57.7013 185.25 57.4862 185.408 57.2489 185.515C56.962 185.643 56.6087 185.728 56.4936 186.046C56.4448 186.177 56.4507 186.326 56.4019 186.456C56.2067 186.977 55.3479 186.804 55.1313 187.31C55.0688 187.455 55.0727 187.638 54.9693 187.754C54.8658 187.869 54.6765 187.865 54.5204 187.894C53.8997 188.005 53.5972 188.791 53.0663 189.16C52.6194 189.472 52.0436 189.465 51.5635 189.708C51.3135 189.872 51.0526 190.015 50.7828 190.135C50.4839 190.192 50.1798 190.209 49.8772 190.184C49.8446 190.181 49.8117 190.185 49.7805 190.196C49.7493 190.207 49.7205 190.225 49.6957 190.248C49.6778 190.28 49.666 190.315 49.661 190.352C49.6559 190.388 49.6578 190.426 49.6664 190.462C49.8139 191.49 50.2037 192.458 50.7975 193.271C51.3913 194.084 52.1685 194.714 53.0527 195.099C53.1548 195.135 53.2519 195.186 53.3415 195.251C53.6128 195.464 53.6597 195.948 53.9661 196.104C54.0773 196.146 54.1967 196.154 54.3116 196.126C54.4264 196.099 54.5324 196.039 54.618 195.951C54.7853 195.772 54.9424 195.583 55.0883 195.383C55.369 195.064 55.7368 194.853 56.1364 194.781C56.5053 194.717 56.9171 194.764 57.2157 194.516C57.3379 194.394 57.4514 194.261 57.5553 194.12C57.7795 193.892 58.0458 193.721 58.336 193.616C59.1164 193.286 59.9401 193.096 60.7757 193.053C61.5564 193.003 62.3664 193.082 63.1061 192.803C63.2986 192.739 63.4758 192.63 63.6252 192.483C63.7849 192.294 63.9037 192.069 63.9726 191.823C64.2418 190.971 64.2964 190.054 64.1307 189.171V189.171Z" fill="#514E7F"/>
<path d="M60.2936 184.375C60.5141 184.354 60.7347 184.375 60.9552 184.375C61.2148 184.375 61.4705 184.307 61.7359 184.305C62.1463 184.312 62.5438 184.463 62.8703 184.735C63.1969 185.006 63.4354 185.385 63.551 185.816C63.5733 185.884 63.5774 185.958 63.5628 186.029C63.5541 186.064 63.5341 186.095 63.5065 186.115C63.4789 186.136 63.4455 186.145 63.4125 186.14C63.327 185.883 63.215 185.638 63.0787 185.408C62.8311 185.042 62.4799 184.775 62.0794 184.649C61.6791 184.525 61.2574 184.508 60.8498 184.599C60.682 184.634 60.5161 184.683 60.3502 184.734L59.5402 184.973C59.3938 185.016 59.2475 185.06 59.105 185.118C58.9957 185.161 58.8064 185.331 58.699 185.331C58.5526 185.331 58.6717 185.193 58.7361 185.099C58.8653 184.905 59.0469 184.761 59.2553 184.687C59.5883 184.537 59.9371 184.432 60.2936 184.375Z" fill="#514E7F"/>
<path d="M62.3 194.152C62.4952 194.826 62.6903 195.5 62.9265 196.158C63.3586 197.297 63.9031 198.382 64.5503 199.393C64.9666 200.058 65.4142 200.699 65.8912 201.314C66.4884 202.084 67.1559 202.859 67.3667 203.842C67.4897 204.41 67.4487 205.005 67.4994 205.586C67.5502 206.166 67.7239 206.783 68.1532 207.131C68.4793 207.352 68.8485 207.485 69.2306 207.519C69.4999 207.566 69.8376 207.581 69.9781 207.325C70.0273 207.221 70.0528 207.105 70.0523 206.988L70.1167 206.134C70.1323 205.951 70.1909 205.708 70.3587 205.708C70.5266 205.708 70.6124 205.944 70.7491 206.053C70.7999 206.083 70.8559 206.102 70.9135 206.107C70.9711 206.113 71.0292 206.105 71.084 206.085C71.1389 206.065 71.1894 206.033 71.2325 205.991C71.2756 205.949 71.3103 205.897 71.3346 205.84C71.4207 205.601 71.4263 205.336 71.3502 205.093C71.2343 204.61 71.0264 204.159 70.7402 203.77C70.454 203.381 70.0959 203.062 69.6893 202.835C69.4062 202.708 69.1345 202.553 68.8773 202.372C68.6157 202.126 68.3991 201.827 68.2391 201.493C66.7617 198.836 65.2783 196.158 64.2381 193.274C64.0329 192.758 63.8943 192.213 63.8263 191.655C63.8051 191.085 63.8266 190.514 63.8907 189.947C63.954 188.922 63.8691 187.892 63.6389 186.896C63.5881 186.634 63.4978 186.384 63.3715 186.155C62.9441 185.442 61.935 185.338 61.2988 185.829C61.0647 186.026 60.8706 186.274 60.7288 186.558C60.587 186.841 60.5006 187.154 60.4751 187.476C60.4283 188.05 60.7327 188.65 60.8869 189.183C61.358 190.841 61.829 192.497 62.3 194.152Z" fill="#A1616A"/>
<path d="M71.198 179.292C71.2214 179.021 71.0028 178.776 70.7471 178.603C70.4813 178.452 70.2256 178.281 69.982 178.091C69.7556 177.877 69.6327 177.598 69.4063 177.384C69.1498 177.17 68.8584 177.011 68.5475 176.917C67.8874 176.663 67.1941 176.526 66.4943 176.513C65.803 176.493 65.1209 176.69 64.5289 177.081C64.3984 177.169 64.285 177.284 64.1952 177.42C64.1101 177.587 64.0551 177.771 64.0332 177.96C63.9063 178.544 63.7346 179.115 63.5198 179.668C63.2993 180.282 63.0631 180.918 62.544 181.392C61.9877 181.9 61.1348 182.192 60.7679 182.805C60.7279 182.859 60.6998 182.923 60.686 182.992C60.6721 183.06 60.6727 183.131 60.6879 183.199C60.7406 183.353 60.9104 183.458 61.0646 183.556C61.9682 184.124 62.747 184.858 63.149 185.737C63.3596 186.162 63.4542 186.644 63.4217 187.127C63.3891 187.609 63.2309 188.071 62.9656 188.458C62.7567 188.757 62.4679 189.111 62.6728 189.412C62.9831 189.868 64.0546 189.608 64.3005 190.09C64.3516 190.251 64.3631 190.423 64.3337 190.59C64.3337 191.096 64.7807 191.548 65.3233 191.781C65.8965 191.993 66.4979 192.101 67.1032 192.101C67.2669 191.703 67.283 191.252 67.1481 190.842C67.1078 190.753 67.0922 190.654 67.1032 190.556C67.1456 190.447 67.2128 190.352 67.2984 190.28C67.9522 189.606 67.8137 188.614 67.4214 187.813C67.0291 187.013 66.4201 186.279 66.1937 185.436C66.0805 185.009 66.0786 184.546 66.3889 184.198C66.5632 184.031 66.7506 183.881 66.9491 183.75C67.301 183.488 67.573 183.116 67.7297 182.683C67.9113 182.128 67.8839 181.46 68.4187 181.093C68.9535 180.726 69.6464 180.846 70.2104 180.609C70.6652 180.41 71.1629 179.687 71.198 179.292Z" fill="#464353"/>
<path d="M87.8872 183.991C89.6798 183.991 91.133 182.402 91.133 180.442C91.133 178.482 89.6798 176.893 87.8872 176.893C86.0946 176.893 84.6415 178.482 84.6415 180.442C84.6415 182.402 86.0946 183.991 87.8872 183.991Z" fill="#FBBEBE"/>
<path d="M90.809 180.293C91.1086 180.816 91.5015 181.268 91.9642 181.622C92.4269 181.976 92.95 182.224 93.5024 182.352L93.2584 183.321C92.8368 184.99 92.3606 186.757 91.1817 187.914C91.233 187.627 91.2301 187.332 91.1734 187.046C91.1167 186.761 91.0073 186.491 90.8519 186.253C90.5402 185.78 90.1697 185.356 89.7511 184.994L87.8833 183.217C87.8261 183.171 87.7783 183.113 87.7428 183.046C87.697 182.921 87.697 182.782 87.7428 182.657C87.9809 181.846 88.6601 181.341 89.2105 180.794C89.4879 180.511 89.7359 180.196 89.9502 179.853C90.3327 179.277 90.5728 179.86 90.809 180.293Z" fill="#FBBEBE"/>
<path d="M91.2227 184.883C91.2408 185.149 91.2083 185.415 91.1271 185.666C91.0818 185.789 90.9977 185.89 90.8902 185.95C90.7827 186.01 90.659 186.026 90.5416 185.995C90.6099 185.827 90.4303 185.634 90.2625 185.656C90.1799 185.676 90.1031 185.718 90.0385 185.778C89.9739 185.838 89.9236 185.914 89.8916 185.999C89.779 186.245 89.7414 186.523 89.7843 186.793C89.837 187.13 90.0146 187.453 89.9678 187.79C89.9307 188.069 89.7414 188.349 89.8429 188.612C89.9079 188.73 89.9896 188.837 90.0849 188.927C90.2168 189.106 90.2813 189.332 90.265 189.561C90.2486 189.79 90.1527 190.003 89.997 190.157L92.5343 190.21C92.4406 190.673 92.6319 191.147 92.8485 191.557C93.4551 192.686 94.2927 193.646 95.2958 194.363C96.2988 195.079 97.4399 195.531 98.6296 195.684C98.5654 195.725 98.5104 195.781 98.4684 195.849C98.4265 195.916 98.3988 195.993 98.3872 196.073C98.3757 196.153 98.3805 196.236 98.4015 196.314C98.4225 196.392 98.4591 196.464 98.5086 196.525C98.7154 196.749 99.0629 196.721 99.3205 196.576C99.5647 196.404 99.7976 196.214 100.017 196.006C100.431 195.681 100.938 195.53 101.446 195.579C101.764 195.611 102.07 195.722 102.389 195.741C103.325 195.797 104.132 195.059 105.027 194.758C105.685 194.544 106.429 194.544 106.979 194.088C107.217 193.895 107.412 193.58 107.342 193.264C107.284 193.084 107.19 192.919 107.069 192.781C106.751 192.331 106.565 191.791 106.337 191.288C105.887 190.278 105.267 189.37 104.508 188.612C103.938 188.064 103.332 187.561 102.697 187.107C102.543 186.983 102.378 186.875 102.205 186.785C101.975 186.703 101.751 186.603 101.534 186.486C101.235 186.273 101.065 185.92 100.837 185.632C100.335 184.992 99.5645 184.7 98.9457 184.196C98.532 183.859 98.1651 183.415 97.6713 183.251C97.4312 183.172 97.1736 183.165 96.9335 183.086C96.387 182.905 95.9889 182.374 95.4521 182.16C95.0286 181.989 94.5602 182.034 94.1113 181.972C93.617 181.905 93.1446 181.71 92.7334 181.403C92.5996 181.282 92.4495 181.186 92.2884 181.117C91.6111 180.903 91.5565 182.273 91.4921 182.751C91.3906 183.449 91.2227 184.164 91.2227 184.883Z" fill="#3F3D56"/>
<path d="M91.8844 189.516C91.9976 190.863 91.0666 192.169 91.3379 193.49C91.3965 193.772 91.5058 194.038 91.5467 194.322C91.6599 195.105 91.2325 195.846 90.8246 196.501L87.3115 202.122C87.172 202.37 87.0041 202.598 86.8118 202.799C86.1404 203.45 85.1372 203.381 84.257 203.578C83.6385 203.715 83.0546 203.998 82.5453 204.406C82.5229 204.425 82.5081 204.453 82.5041 204.484C82.5001 204.515 82.5072 204.547 82.5239 204.572C82.6691 204.789 82.8617 204.962 83.084 205.076C83.3063 205.19 83.5513 205.241 83.7964 205.225C83.8881 205.358 83.7964 205.554 83.6695 205.652C83.4744 205.795 83.2226 205.833 83.1855 206.181C83.1726 206.303 83.1944 206.426 83.248 206.533C83.3901 206.77 83.6105 206.936 83.8628 206.999C85.0748 207.404 86.3844 206.691 87.292 205.718C88.1995 204.745 88.8533 203.527 89.7433 202.538C90.2371 201.992 90.7973 201.525 91.3047 200.996C92.3177 199.928 93.1062 198.648 93.8674 197.368C94.1154 196.993 94.3029 196.575 94.4217 196.132C94.5153 195.694 94.4724 195.229 94.5817 194.796C94.7222 194.226 95.1028 193.772 95.4209 193.302C96.0435 192.365 96.4573 191.221 96.3753 190.067C96.2934 188.912 95.6395 187.777 94.6461 187.384C94.3357 187.248 93.9933 187.226 93.6702 187.32C93.2623 187.457 92.9618 187.826 92.6827 188.174L92.0171 189.015C91.8503 189.199 91.7177 189.416 91.6268 189.655C91.5841 189.776 91.5743 189.908 91.5985 190.035C91.6228 190.161 91.68 190.278 91.7634 190.37" fill="#FBBEBE"/>
<path d="M93.6566 183.983C93.196 184.013 92.6807 184.062 92.3626 184.41C92.2266 184.575 92.1171 184.764 92.0386 184.969C91.7224 185.671 91.414 186.407 91.3926 187.19C91.3731 187.815 91.5389 188.428 91.6268 189.047C91.699 189.561 91.5155 190.086 91.4804 190.607C92.1169 190.418 92.7343 190.158 93.3228 189.832C93.6632 189.59 94.0248 189.384 94.4021 189.22C94.9506 189.019 95.8757 189.363 96.3949 189.647C96.4241 189.245 96.1489 188.547 96.1782 188.153C96.1818 187.983 96.2095 187.816 96.2602 187.655C96.3377 187.486 96.4298 187.325 96.5354 187.175C96.735 186.821 96.8268 186.407 96.7977 185.993C96.7686 185.578 96.6201 185.185 96.3734 184.868C95.9108 184.299 95.1848 184.085 94.4919 183.995C94.0553 183.941 93.6154 183.924 93.1765 183.946" fill="#3F3D56"/>
<path d="M83.611 176.874L83.5368 176.206C84.0501 176.349 84.5361 175.875 84.864 175.382C85.1919 174.889 85.4944 174.315 85.9921 174.102C86.5991 173.852 87.2412 174.251 87.8209 174.58C88.4685 174.98 89.1811 175.238 89.919 175.34C90.0367 175.345 90.1533 175.366 90.2664 175.402C90.6431 175.549 90.8227 176.065 90.8773 176.535C90.932 177.004 90.9164 177.504 91.1018 177.922C91.2442 178.238 91.4921 178.475 91.6326 178.776C92.023 179.614 91.6463 180.762 92.0659 181.586L91.0257 180.545C90.93 180.449 90.7953 180.348 90.6919 180.429C90.5885 180.511 90.6021 180.643 90.567 180.743C90.5374 180.817 90.4945 180.883 90.4408 180.938C90.3872 180.993 90.3238 181.036 90.2547 181.063C90.1856 181.091 90.1121 181.103 90.0386 181.098C89.9651 181.094 89.8933 181.073 89.8273 181.038C89.5644 180.874 89.3383 180.648 89.1656 180.376C88.7332 179.771 88.1642 179.3 87.5145 179.008C87.2329 178.889 86.9312 178.838 86.6298 178.857C86.3285 178.877 86.0345 178.967 85.7677 179.121C85.2817 179.422 84.9265 180.12 84.3312 180.143C83.5154 180.178 83.1758 178.517 82.7991 177.862C82.9368 177.748 83.0337 177.585 83.0729 177.401C83.1121 177.217 83.0912 177.024 83.0138 176.855C83.0704 176.834 83.5993 176.772 83.611 176.874Z" fill="#464353"/>
<path d="M171.224 237.339C171.066 236.607 170.971 235.967 170.971 235.967C170.984 235.483 170.884 235.003 170.68 234.573V234.372V232.9C170.772 232.633 170.886 232.375 171.019 232.13C171.262 231.669 171.019 229.974 171.019 229.974C171.019 229.974 170.122 227.586 170.338 226.071C170.555 224.556 168.496 219.342 168.496 219.342C168.509 218.838 168.574 218.337 168.691 217.848C168.713 217.746 168.722 217.641 168.716 217.537C168.717 217.524 168.717 217.511 168.716 217.498V217.511C168.685 216.512 167.963 214.639 167.963 214.639L168.061 211.071C168.061 211.071 168.521 208.964 167.77 206.139C167.506 205.153 167.339 204.365 167.231 203.755C167.219 203.687 167.208 203.62 167.198 203.556C168.746 203.298 169.93 203.083 169.93 203.083C169.93 203.083 169.033 198.975 168.426 198.255C167.819 197.536 167.335 195.278 167.335 195.278C167.335 195.278 167.018 192.376 167.53 191.529C168.041 190.682 168.115 189.218 168.115 189.218C168.115 189.218 169.286 188.294 169.425 187.882C169.632 187.297 169.763 186.683 169.815 186.059C169.815 185.57 169.669 185.135 169.718 184.877C169.766 184.619 169.378 183.646 169.573 183.182C169.624 183.04 169.649 182.889 169.649 182.736C169.65 182.732 169.65 182.728 169.649 182.724V182.724C169.65 182.319 169.615 181.915 169.546 181.518C169.21 181.207 168.817 180.977 168.394 180.843L168.369 180.735L168.303 180.447C168.266 180.418 168.228 180.394 168.188 180.372V180.265V179.838L168.369 178.899C168.728 177.271 166.737 177.028 166.737 177.028C166.617 176.777 166.416 176.584 166.173 176.486C165.783 176.332 166.107 178.94 166.294 179.106C166.435 179.23 166.88 180.05 167.075 180.451L167.11 180.517C167.077 180.549 167.046 180.584 167.018 180.622L167.095 181.187L167.106 181.275C166.974 181.453 166.867 181.653 166.788 181.866C166.788 181.866 167.153 182.303 167.079 182.792C167.051 183.173 167.092 183.557 167.2 183.921C167.178 183.893 166.923 183.59 166.667 183.665C166.411 183.739 165.691 183.972 165.691 183.972C165.691 183.972 165.156 184.074 165.205 184.203C165.254 184.331 164.842 184.896 164.842 184.896L163.408 183.402C163.392 183.357 163.378 183.313 163.365 183.268C163.306 183.059 163.265 182.845 163.242 182.628C163.398 182.587 163.55 182.533 163.699 182.467C163.847 182.41 163.981 182.315 164.089 182.19C164.209 181.985 164.288 181.755 164.319 181.514C164.432 181.057 164.676 180.649 164.852 180.216C165.142 179.488 165.238 178.686 165.129 177.901C165.107 177.657 165.032 177.423 164.911 177.218C164.676 176.866 164.251 176.723 163.935 176.441C163.619 176.159 163.427 175.732 163.066 175.521C162.723 175.358 162.341 175.322 161.977 175.419C161.26 175.546 160.571 175.82 159.945 176.225C159.735 176.362 159.506 176.518 159.264 176.471C159.065 176.404 158.892 176.266 158.774 176.078C158.773 176.07 158.773 176.062 158.774 176.055L158.757 176.035C158.606 176.405 158.53 176.805 158.534 177.209C158.534 177.271 158.534 177.333 158.534 177.397C158.534 177.418 158.534 177.44 158.534 177.461C158.535 177.479 158.535 177.498 158.534 177.516V177.516C158.533 177.545 158.529 177.572 158.523 177.6C158.493 177.68 158.448 177.753 158.39 177.813C158.345 177.866 158.305 177.925 158.273 177.988C158.273 177.967 158.284 177.945 158.292 177.924C158.2 178.069 158.148 178.24 158.142 178.417C158.134 178.546 158.173 178.674 158.251 178.771C158.322 178.85 158.4 178.922 158.483 178.985C158.456 179.157 158.442 179.331 158.442 179.505C158.445 180.027 158.571 180.54 158.807 180.993C159.044 181.447 159.383 181.826 159.793 182.094L159.842 182.228C160.05 182.767 160.138 183.352 160.101 183.936C160.101 183.978 160.101 184.019 160.084 184.062L160.033 184.126C160.033 184.126 157.664 184.151 157.106 183.599C156.547 183.046 155.698 184.947 155.698 184.947C155.698 184.947 154.849 185.129 154.68 184.947C154.51 184.766 153.509 184.922 153.509 184.922C153.101 184.528 152.573 184.317 152.029 184.333C151.698 184.056 151.331 183.833 150.942 183.671V183.671L150.915 183.66C150.744 183.593 150.561 183.568 150.38 183.588C150.38 183.588 149.209 182.534 148.877 181.97C148.545 181.407 146.925 179.309 146.912 179.298V179.198L146.892 178.893C146.844 178.901 146.796 178.906 146.748 178.908C146.748 178.876 146.728 178.842 146.715 178.801C146.621 178.507 146.506 178.221 146.371 177.948C146.371 177.948 146.371 177.563 146.474 177.467C146.578 177.371 146.432 175.959 146.432 175.959C146.432 175.959 145.381 173.276 144.443 175.278C144.443 175.278 142.665 176.573 144.156 178.084C144.156 178.084 144.741 178.398 144.835 178.647C144.892 178.81 145.093 179.264 145.225 179.565L145.286 179.7L145.268 179.715L145.292 179.966V180.065C145.011 180.237 144.821 180.41 144.866 180.543C144.95 180.765 145.007 180.998 145.036 181.236C145.036 181.236 147.099 184.06 147.366 185.267C147.366 185.267 152.898 188.861 154.717 189.119L154.402 190.916C154.355 191.403 154.331 191.891 154.33 192.38C154.354 192.764 154.112 194.514 154.112 194.514C154.112 194.514 153.795 197.075 153.526 197.44C153.257 197.805 153.307 199.342 153.307 199.342C153.244 200.079 153.123 200.808 152.944 201.523C152.677 202.5 152.872 203.706 152.872 203.706C152.872 203.706 151.949 206.017 154.158 204.451C154.158 204.451 155.242 204.378 156.501 204.331C156.501 204.376 156.501 204.421 156.501 204.468C156.501 204.643 156.501 204.833 156.501 205.033C156.485 206.356 156.477 208.181 156.532 209.562C156.629 212.001 157.312 216.818 157.312 216.818V219.242C157.27 219.47 157.249 219.703 157.25 219.935C157.234 220.791 157.441 221.633 157.847 222.364L158.017 223.982C158.017 223.982 158.407 225.049 158.423 225.689C158.421 225.741 158.416 225.792 158.405 225.843C158.391 225.924 158.384 226.007 158.386 226.09C158.364 226.824 158.776 228.583 158.776 228.583C158.776 228.583 158.802 230.354 159.044 230.456C159.251 230.544 158.766 231.479 158.622 231.737C158.618 231.72 158.615 231.703 158.612 231.686C158.595 231.72 158.583 231.739 158.583 231.739C158.533 231.882 158.507 232.034 158.507 232.187C158.493 232.308 158.511 232.431 158.558 232.542C158.606 232.652 158.682 232.745 158.776 232.81C159.237 233.12 159.485 233.376 159.094 233.478C158.95 233.502 158.808 233.535 158.667 233.576C158.667 233.557 158.651 233.536 158.645 233.517C158.594 233.542 158.552 233.584 158.525 233.638C158.497 233.691 158.486 233.753 158.493 233.813C158.497 234.023 158.548 234.229 158.64 234.413C158.811 234.876 159.031 235.316 159.295 235.723L159.491 235.7C159.462 235.776 159.426 235.847 159.381 235.913C159.311 236.025 159.218 236.115 159.108 236.178C159.006 236.244 158.893 236.287 158.776 236.304C158.645 236.308 158.515 236.342 158.397 236.405C158.278 236.468 158.173 236.558 158.089 236.669C157.847 237.01 157.699 237.478 158.173 237.887L159.908 238.54C159.908 238.54 162.892 238.967 162.734 238.233C162.576 237.499 162.481 236.861 162.481 236.861C162.492 236.413 162.409 235.968 162.237 235.561C162.207 235.494 162.171 235.43 162.131 235.369L162.237 235.356C162.237 235.356 162.455 233.739 162.746 233.436C162.814 233.365 162.83 233.31 162.812 233.267C162.844 233.18 162.768 233.128 162.67 233.098L162.648 233.162C162.553 233.141 162.457 233.129 162.36 233.128C162.36 233.128 162.262 232.275 162.576 231.972C162.602 231.937 162.621 231.896 162.632 231.853C162.642 231.81 162.645 231.764 162.639 231.72C162.64 231.604 162.629 231.487 162.606 231.374L162.594 231.395C162.415 230.711 162.181 230.045 161.897 229.404C161.897 229.404 161.874 228.634 162.067 228.325C162.26 228.015 162.043 224.14 162.043 224.14C162.043 224.14 162.116 222.266 161.897 221.393C161.678 220.52 162.164 219.492 162.164 219.492V219.436V219.423C162.164 219.423 162.153 219.308 162.135 219.127V219.146C162.086 218.649 161.995 217.75 161.926 217.336C161.829 216.745 161.95 213.922 161.95 213.922L162.387 212.716L163.168 214.794L163.991 217.569C164.227 217.912 164.372 218.32 164.411 218.747C164.411 218.777 164.411 218.807 164.411 218.834C164.407 218.896 164.407 218.958 164.411 219.02C164.397 219.37 164.485 219.716 164.663 220.008C164.663 220.008 164.881 221.318 165.221 221.651C165.56 221.984 165.56 222.627 165.56 222.627C165.56 222.627 165.972 224.528 166.167 224.861C166.331 225.143 166.339 225.915 166.337 226.141V226.212C166.337 226.212 166.394 226.89 166.392 227.462C166.392 227.531 166.392 227.601 166.392 227.676V227.661C166.392 227.816 166.374 227.971 166.341 228.122V228.15C166.341 228.118 166.341 228.083 166.341 228.053C166.254 228.441 166.212 228.839 166.216 229.238C166.205 229.921 166.3 230.732 166.679 231.203C167.335 232.025 167.746 231.923 167.746 231.923C167.746 231.923 167.43 232.949 167.042 233.156C167.027 233.164 167.014 233.173 167.001 233.184C167.001 233.165 167.001 233.143 166.991 233.124C166.949 233.176 166.917 233.237 166.898 233.303C166.878 233.369 166.871 233.439 166.878 233.508C166.896 234.056 167.063 234.586 167.358 235.03C167.449 235.13 167.562 235.203 167.686 235.243L167.625 235.284C167.582 235.31 167.537 235.333 167.491 235.354C167.429 235.384 167.363 235.403 167.296 235.41C167.164 235.413 167.034 235.448 166.916 235.511C166.798 235.574 166.693 235.664 166.609 235.775C166.367 236.116 166.218 236.583 166.692 236.993L168.428 237.646C168.428 237.646 171.375 238.081 171.224 237.339Z" fill="url(#paint0_linear)"/>
<path d="M159.826 238.551L158.146 237.898C157.683 237.488 157.832 237.021 158.066 236.679C158.146 236.57 158.246 236.48 158.361 236.417C158.475 236.354 158.601 236.319 158.729 236.314C158.844 236.298 158.953 236.255 159.051 236.189C159.158 236.125 159.249 236.034 159.317 235.924C159.441 235.712 159.509 235.465 159.512 235.213C159.512 235.213 161.356 234.624 161.854 235.213C161.944 235.32 162.02 235.441 162.079 235.572C162.245 235.98 162.325 236.425 162.313 236.871C162.313 236.871 162.406 237.512 162.559 238.244C162.711 238.976 159.826 238.551 159.826 238.551Z" fill="#2D293D"/>
<path d="M168.045 237.655L166.367 237.002C165.902 236.592 166.05 236.124 166.285 235.785C166.364 235.675 166.465 235.584 166.58 235.521C166.695 235.458 166.821 235.422 166.95 235.418C167.018 235.412 167.083 235.393 167.145 235.363C167.19 235.343 167.233 235.319 167.274 235.292C167.744 235.011 167.733 234.317 167.733 234.317C167.733 234.317 169.575 233.726 170.075 234.317C170.142 234.397 170.201 234.485 170.25 234.579C170.449 235.012 170.546 235.491 170.533 235.975C170.533 235.975 170.627 236.615 170.779 237.347C170.932 238.079 168.045 237.655 168.045 237.655Z" fill="#2D293D"/>
<path opacity="0.1" d="M161.856 235.213C161.946 235.32 162.022 235.441 162.081 235.572V235.572L159.317 235.922C159.441 235.709 159.509 235.463 159.512 235.211C159.512 235.211 161.353 234.624 161.856 235.213Z" fill="black"/>
<path opacity="0.1" d="M170.252 234.571V235.136C169.823 235.911 167.744 235.743 167.141 235.35C167.186 235.33 167.229 235.306 167.27 235.279C167.741 234.998 167.729 234.304 167.729 234.304C167.729 234.304 169.571 233.713 170.071 234.304C170.141 234.385 170.202 234.475 170.252 234.571V234.571Z" fill="black"/>
<path d="M170.582 232.132C170.453 232.378 170.342 232.636 170.252 232.902V234.932C169.784 235.785 167.34 235.497 167.013 235.034C166.685 234.571 166.331 233.365 166.706 233.16C167.081 232.955 167.387 231.927 167.387 231.927C167.387 231.927 166.997 232.029 166.355 231.208C165.713 230.386 165.91 228.564 166.027 228.126C166.144 227.689 166.027 226.227 166.027 226.227C166.027 226.227 166.05 225.2 165.863 224.865C165.676 224.53 165.277 222.631 165.277 222.631C165.277 222.631 165.277 221.991 164.95 221.656C164.622 221.32 164.409 220.012 164.409 220.012C164.217 219.685 164.134 219.295 164.175 218.909C164.245 218.269 163.775 217.573 163.775 217.573L162.976 214.799L162.225 212.718L161.803 213.924C161.803 213.924 161.684 216.749 161.78 217.338C161.876 217.927 162.014 219.494 162.014 219.494C162.014 219.494 161.544 220.522 161.756 221.395C161.969 222.268 161.897 224.142 161.897 224.142C161.897 224.142 162.108 228.019 161.92 228.329C161.733 228.638 161.756 229.396 161.756 229.396C161.756 229.396 162.719 231.656 162.412 231.957C162.106 232.258 162.201 233.113 162.201 233.113C162.201 233.113 162.859 233.113 162.578 233.421C162.297 233.728 162.084 235.341 162.084 235.341L159.241 235.734C158.984 235.325 158.771 234.885 158.604 234.424C158.23 233.474 158.675 233.57 159.053 233.474C159.432 233.378 159.192 233.116 158.745 232.806C158.298 232.497 158.55 231.805 158.55 231.805C158.55 231.805 159.231 230.546 158.997 230.444C158.763 230.341 158.737 228.57 158.737 228.57C158.737 228.57 158.269 226.464 158.386 225.9C158.503 225.337 158.009 223.98 158.009 223.98L157.845 222.362C157.345 221.442 157.165 220.355 157.338 219.302V216.803C157.338 216.803 156.68 211.975 156.584 209.547C156.526 207.985 156.541 205.853 156.561 204.521C156.573 203.776 156.584 203.281 156.584 203.281L166.733 202.127C166.75 202.681 166.812 203.232 166.919 203.774C167.022 204.382 167.184 205.172 167.438 206.158C168.166 208.981 167.721 211.088 167.721 211.088L167.627 214.656C167.627 214.656 168.519 217.044 168.332 217.857C168.216 218.345 168.151 218.846 168.137 219.351C168.137 219.351 170.133 224.564 169.923 226.079C169.712 227.595 170.582 229.972 170.582 229.972C170.582 229.972 170.816 231.679 170.582 232.132Z" fill="#464353"/>
<path opacity="0.05" d="M164.782 218.755L167.862 218.305C167.862 218.305 166.121 220.256 164.782 218.755Z" fill="black"/>
<path opacity="0.1" d="M167.422 215.006C167.422 215.006 167.53 216.199 166.86 216.649C166.86 216.649 168.057 216.444 167.422 215.006Z" fill="black"/>
<path opacity="0.1" d="M167.233 211.205C167.233 211.205 164.653 213.529 163.72 213.339C162.787 213.149 167.233 211.205 167.233 211.205Z" fill="black"/>
<path opacity="0.1" d="M160.952 219.846C160.952 219.846 159.001 220.335 158.934 221.195C158.868 222.055 160.952 219.846 160.952 219.846Z" fill="black"/>
<path opacity="0.05" d="M161.384 230.552C161.384 230.552 158.614 231.118 159.401 231.504C160.075 231.796 160.771 232.027 161.479 232.196C161.479 232.196 162.371 232.247 161.384 230.552Z" fill="black"/>
<g opacity="0.05">
<path opacity="0.05" d="M158.841 232.106C158.771 232.058 158.712 231.994 158.668 231.918C158.624 231.842 158.596 231.756 158.587 231.666L158.56 231.722C158.56 231.722 158.3 232.413 158.755 232.723C158.806 232.757 158.854 232.793 158.899 232.827C158.981 232.81 159.071 232.798 159.155 232.774C159.526 232.68 159.288 232.422 158.841 232.106Z" fill="black"/>
<path opacity="0.05" d="M162.41 231.91C162.486 231.833 162.483 231.634 162.438 231.38C162.324 231.609 162.27 231.866 162.28 232.125C162.307 232.043 162.352 231.97 162.41 231.91Z" fill="black"/>
<path opacity="0.05" d="M161.983 219.135C161.879 219.438 161.813 219.756 161.788 220.078C161.841 219.858 161.914 219.644 162.003 219.438C162.003 219.438 162.007 219.314 161.983 219.135Z" fill="black"/>
<path opacity="0.05" d="M168.328 217.786C168.347 217.694 168.355 217.599 168.354 217.505C168.318 217.697 168.295 217.876 168.277 218.032C168.293 217.951 168.309 217.87 168.328 217.786Z" fill="black"/>
<path opacity="0.05" d="M161.917 228.265C161.971 228.081 161.995 227.888 161.987 227.695C161.899 227.923 161.853 228.167 161.852 228.414C161.868 228.362 161.89 228.312 161.917 228.265V228.265Z" fill="black"/>
<path opacity="0.05" d="M162.498 233.105C162.353 233.62 162.245 234.148 162.176 234.682L159.336 235.043C159.079 234.634 158.865 234.194 158.7 233.732C158.67 233.658 158.643 233.583 158.62 233.506C158.45 233.591 158.382 233.783 158.606 234.36C158.771 234.821 158.985 235.26 159.243 235.668L162.081 235.307C162.081 235.307 162.293 233.69 162.574 233.387C162.713 233.222 162.625 233.145 162.498 233.105Z" fill="black"/>
<path opacity="0.05" d="M158.747 228.493C158.747 228.493 158.77 230.267 159.005 230.369C159.124 230.077 159.2 229.799 159.096 229.752C158.862 229.65 158.839 227.878 158.839 227.878C158.839 227.878 158.368 225.772 158.487 225.207C158.606 224.641 158.111 223.286 158.111 223.286L157.947 221.668C157.444 220.751 157.261 219.666 157.43 218.612V216.118C157.43 216.118 156.772 211.29 156.678 208.851C156.618 207.289 156.635 205.157 156.655 203.825C156.655 203.586 156.655 203.373 156.655 203.185H156.575C156.575 203.185 156.563 203.678 156.551 204.425C156.532 205.755 156.514 207.889 156.575 209.451C156.668 211.89 157.326 216.717 157.326 216.717V219.208C157.154 220.271 157.342 221.367 157.855 222.289L158.019 223.907C158.019 223.907 158.513 225.266 158.394 225.828C158.275 226.389 158.747 228.493 158.747 228.493Z" fill="black"/>
<path opacity="0.05" d="M167.106 234.349C166.876 233.984 166.722 233.567 166.657 233.128C166.367 233.414 166.7 234.526 167.013 234.966C167.325 235.405 169.784 235.711 170.254 234.861V234.372C169.618 235.062 167.419 234.786 167.106 234.349Z" fill="black"/>
<path opacity="0.05" d="M170.676 231.447C170.547 231.693 170.438 231.951 170.348 232.217V232.578C170.401 232.445 170.477 232.27 170.582 232.063C170.658 231.86 170.693 231.642 170.686 231.423L170.676 231.447Z" fill="black"/>
<path opacity="0.05" d="M167.251 231.852C167.34 231.655 167.418 231.451 167.483 231.242C167.483 231.242 167.093 231.344 166.448 230.523C165.988 229.925 165.962 228.796 166.027 228.058C165.91 228.495 165.72 230.318 166.355 231.139C166.771 231.679 167.081 231.818 167.251 231.852Z" fill="black"/>
<path opacity="0.05" d="M166.027 226.158C166.068 226.664 166.083 227.172 166.074 227.68C166.089 227.58 166.107 227.499 166.121 227.441C166.24 227.014 166.121 225.542 166.121 225.542C166.121 225.542 166.144 224.513 165.957 224.18C165.769 223.847 165.371 221.946 165.371 221.946C165.371 221.946 165.371 221.306 165.043 220.97C164.715 220.635 164.503 219.327 164.503 219.327C164.31 219 164.226 218.61 164.266 218.224C164.339 217.584 163.876 216.888 163.876 216.888L163.078 214.114L162.317 212.046L161.893 213.252C161.893 213.252 161.893 213.403 161.879 213.642L162.223 212.663L162.974 214.741L163.773 217.515C163.773 217.515 164.241 218.209 164.163 218.849C164.128 219.233 164.214 219.619 164.407 219.942C164.407 219.942 164.618 221.25 164.946 221.585C165.274 221.92 165.275 222.56 165.275 222.56C165.275 222.56 165.666 224.46 165.861 224.795C166.056 225.13 166.027 226.158 166.027 226.158Z" fill="black"/>
</g>
<path d="M167.998 178.914L167.823 179.853L167.832 180.28V180.587L166.856 180.698L166.747 180.485C166.552 180.084 166.123 179.266 165.986 179.14C165.804 178.974 165.482 176.366 165.869 176.522C166.106 176.621 166.301 176.814 166.415 177.062C166.415 177.062 168.346 177.284 167.998 178.914Z" fill="#FFCDD3"/>
<path opacity="0.1" d="M167.84 180.577L166.864 180.688L166.755 180.474C166.887 180.31 167.066 180.201 167.264 180.165C167.461 180.13 167.663 180.17 167.836 180.28L167.84 180.577Z" fill="black"/>
<path d="M168.086 181.085L166.796 181.413L166.769 181.2L166.694 180.634C166.765 180.532 166.853 180.445 166.954 180.38C167.056 180.315 167.168 180.272 167.284 180.255C167.4 180.237 167.519 180.245 167.632 180.278C167.746 180.311 167.852 180.368 167.945 180.447L168.01 180.735L168.086 181.085Z" fill="#DCE6F2"/>
<path d="M147.156 179.017L145.778 179.828L145.653 179.542C145.52 179.241 145.325 178.788 145.262 178.626C145.18 178.376 144.605 178.061 144.605 178.061C143.16 176.552 144.88 175.256 144.88 175.256C145.791 173.253 146.806 175.935 146.806 175.935C146.806 175.935 146.947 177.35 146.847 177.444C146.748 177.538 146.748 177.926 146.748 177.926C146.879 178.201 146.991 178.486 147.081 178.78C147.134 178.929 147.156 179.017 147.156 179.017Z" fill="#FFCDD3"/>
<path opacity="0.1" d="M147.156 179.017L145.778 179.828L145.653 179.542C145.848 179.365 146.537 178.752 146.763 178.78C146.872 178.792 146.982 178.792 147.091 178.78C147.134 178.929 147.156 179.017 147.156 179.017Z" fill="black"/>
<path d="M147.296 179.473L145.746 180.308L145.715 179.943L145.694 179.693C145.694 179.693 146.592 178.85 146.865 178.882C146.999 178.903 147.136 178.903 147.271 178.882L147.288 179.187L147.296 179.473Z" fill="#DCE6F2"/>
<path d="M164.241 185.141C164.241 185.141 157.482 185.976 158.745 185.528C159.625 185.214 159.975 184.604 160.049 183.925C160.083 183.343 159.997 182.759 159.797 182.218C159.637 181.751 159.434 181.304 159.192 180.882C159.192 180.882 164.358 177.775 163.326 180.6C163.165 181.027 163.066 181.478 163.033 181.938C163.001 182.394 163.046 182.853 163.164 183.291C163.36 184.005 163.733 184.645 164.241 185.141Z" fill="#FFCDD3"/>
<path opacity="0.1" d="M163.326 180.598C163.165 181.025 163.066 181.476 163.033 181.936C162.545 182.382 162.012 182.363 161.327 182.363C160.8 182.363 160.217 182.504 159.797 182.226C159.637 181.76 159.434 181.312 159.192 180.89C159.192 180.89 164.358 177.773 163.326 180.598Z" fill="black"/>
<path d="M161.235 182.551C162.779 182.551 164.03 181.182 164.03 179.495C164.03 177.807 162.779 176.439 161.235 176.439C159.692 176.439 158.441 177.807 158.441 179.495C158.441 181.182 159.692 182.551 161.235 182.551Z" fill="#FFCDD3"/>
<path opacity="0.1" d="M164.241 185.141C164.241 185.141 157.482 185.976 158.745 185.528C159.625 185.214 159.975 184.604 160.049 183.925C160.384 183.526 161.06 183.238 161.495 183.086C161.891 182.941 162.319 182.933 162.719 183.065C162.876 183.111 163.026 183.183 163.164 183.278C163.358 183.997 163.731 184.642 164.241 185.141Z" fill="black"/>
<path opacity="0.1" d="M168.086 181.085L166.796 181.413L166.769 181.2C166.906 180.992 167.1 180.836 167.322 180.752C167.544 180.669 167.784 180.663 168.01 180.735L168.086 181.085Z" fill="black"/>
<path opacity="0.1" d="M147.296 179.473L145.746 180.308L145.715 179.943C146.218 179.649 146.74 179.396 147.277 179.187L147.296 179.473Z" fill="black"/>
<path opacity="0.1" d="M166.915 203.763C164.298 204.214 160.572 204.803 159.98 204.606C159.491 204.442 157.925 204.459 156.561 204.51C156.573 203.766 156.584 203.27 156.584 203.27L166.733 202.116C166.748 202.67 166.809 203.221 166.915 203.763V203.763Z" fill="black"/>
<path d="M169.524 203.083C169.524 203.083 160.906 204.7 159.98 204.391C159.055 204.081 154.307 204.419 154.307 204.419C152.17 205.983 153.064 203.674 153.064 203.674C153.064 203.674 152.868 202.466 153.134 201.491C153.306 200.775 153.423 200.045 153.485 199.307C153.485 199.307 153.438 197.767 153.696 197.408C153.954 197.05 154.26 194.48 154.26 194.48C154.26 194.48 154.496 192.735 154.473 192.346C154.449 191.958 154.543 190.884 154.543 190.884L154.847 189.085C153.091 188.829 147.731 185.233 147.731 185.233C147.474 184.027 145.477 181.202 145.477 181.202C145.448 180.964 145.393 180.732 145.313 180.508C145.173 180.099 147.286 179.277 147.286 179.277C147.286 179.277 148.859 181.383 149.187 181.947C149.515 182.51 150.643 183.564 150.643 183.564C150.819 183.545 150.996 183.571 151.161 183.639H151.188C151.565 183.802 151.919 184.024 152.238 184.299C152.768 184.284 153.282 184.496 153.67 184.89C153.67 184.89 154.635 184.736 154.799 184.915C154.963 185.095 155.774 184.915 155.774 184.915C155.774 184.915 156.598 183.016 157.141 183.567C157.683 184.117 159.973 184.094 159.973 184.094C160.279 183.65 161.021 183.332 161.487 183.167C161.883 183.022 162.311 183.014 162.711 183.146C162.885 183.199 163.049 183.286 163.195 183.402L164.585 184.896C164.585 184.896 164.975 184.331 164.938 184.202C164.901 184.074 165.408 183.972 165.408 183.972C165.408 183.972 166.089 183.742 166.347 183.663C166.605 183.584 166.843 183.893 166.862 183.919C166.758 183.554 166.718 183.171 166.745 182.79C166.766 182.453 166.665 182.121 166.464 181.866C167.294 179.672 169.15 181.528 169.15 181.528C169.15 181.528 169.36 182.734 169.173 183.197C168.986 183.66 169.368 184.636 169.314 184.892C169.259 185.148 169.407 185.585 169.407 186.072C169.357 186.696 169.231 187.309 169.033 187.897C168.89 188.306 167.764 189.23 167.764 189.23C167.764 189.23 167.694 190.694 167.2 191.542C166.706 192.389 167.005 195.291 167.005 195.291C167.005 195.291 167.473 197.551 168.061 198.279C168.648 199.007 169.524 203.083 169.524 203.083Z" fill="#3F3D56"/>
<path opacity="0.1" d="M156.961 186.196C156.961 186.196 156.704 185.342 156.467 185.27C156.234 185.175 156.006 185.064 155.786 184.937L155.938 184.621C155.938 184.621 156.821 184.885 156.961 185.167C157.102 185.449 156.961 186.196 156.961 186.196Z" fill="black"/>
<path opacity="0.1" d="M152.248 184.32C152.201 184.578 150.112 184.809 150.112 184.809L151.168 183.65L151.196 183.66C151.574 183.823 151.928 184.045 152.248 184.32V184.32Z" fill="black"/>
<path d="M146.193 181.001C146.297 181.001 146.381 180.91 146.381 180.797C146.381 180.683 146.297 180.592 146.193 180.592C146.09 180.592 146.006 180.683 146.006 180.797C146.006 180.91 146.09 181.001 146.193 181.001Z" fill="#575988"/>
<path d="M146.433 181.413C146.537 181.413 146.621 181.322 146.621 181.208C146.621 181.095 146.537 181.004 146.433 181.004C146.33 181.004 146.246 181.095 146.246 181.208C146.246 181.322 146.33 181.413 146.433 181.413Z" fill="#575988"/>
<path d="M146.67 181.791C146.773 181.791 146.857 181.699 146.857 181.586C146.857 181.473 146.773 181.381 146.67 181.381C146.566 181.381 146.482 181.473 146.482 181.586C146.482 181.699 146.566 181.791 146.67 181.791Z" fill="#575988"/>
<path d="M146.916 182.203C147.019 182.203 147.103 182.111 147.103 181.998C147.103 181.885 147.019 181.793 146.916 181.793C146.812 181.793 146.728 181.885 146.728 181.998C146.728 182.111 146.812 182.203 146.916 182.203Z" fill="#575988"/>
<path d="M169.052 182.141C169.136 182.141 169.204 182.066 169.204 181.975C169.204 181.883 169.136 181.808 169.052 181.808C168.968 181.808 168.9 181.883 168.9 181.975C168.9 182.066 168.968 182.141 169.052 182.141Z" fill="#575988"/>
<path d="M169.076 182.521C169.16 182.521 169.228 182.446 169.228 182.354C169.228 182.262 169.16 182.188 169.076 182.188C168.991 182.188 168.923 182.262 168.923 182.354C168.923 182.446 168.991 182.521 169.076 182.521Z" fill="#575988"/>
<path d="M169.095 182.899C169.179 182.899 169.247 182.824 169.247 182.732C169.247 182.64 169.179 182.566 169.095 182.566C169.011 182.566 168.943 182.64 168.943 182.732C168.943 182.824 169.011 182.899 169.095 182.899Z" fill="#575988"/>
<path opacity="0.1" d="M156.973 193.153C156.951 193.123 162.243 200.432 166.355 196.209C166.355 196.209 159.859 197.171 156.973 193.153Z" fill="black"/>
<path opacity="0.1" d="M153.932 196.954C153.932 196.954 157.1 197.048 157.431 198.044V199.081C157.342 199.135 157.241 199.164 157.139 199.164C157.036 199.164 156.936 199.135 156.846 199.081C156.526 198.893 154.611 197.829 153.936 198.341L153.932 196.954Z" fill="black"/>
<path d="M153.991 196.954C153.991 196.954 157.02 197.043 157.338 197.993V198.983C157.251 199.035 157.154 199.062 157.056 199.062C156.957 199.062 156.86 199.035 156.774 198.983C156.467 198.802 154.627 197.788 153.991 198.277V196.954Z" fill="#3F3D56"/>
<path opacity="0.1" d="M155.661 189.425C155.985 190.243 156.397 191.016 156.889 191.727C157.425 192.515 158.075 193.201 158.813 193.759C158.813 193.759 155.714 189.909 155.661 189.425Z" fill="black"/>
<path opacity="0.1" d="M154.625 185.408C154.625 185.408 155.154 187.903 156.514 188.75L154.625 185.408Z" fill="black"/>
<path opacity="0.1" d="M153.809 185.66C153.795 185.613 153.339 187.632 155.566 188.75C155.566 188.75 154.625 188.4 153.809 185.66Z" fill="black"/>
<path opacity="0.1" d="M167.647 183.987C167.612 183.987 168.744 184.777 169.052 185.141C169.052 185.141 168.316 183.936 167.647 183.987Z" fill="black"/>
<path d="M160.48 182.263C160.502 182.426 160.579 182.574 160.697 182.677C160.779 182.719 160.869 182.741 160.96 182.741C161.813 182.798 162.699 182.839 163.497 182.48C163.647 182.424 163.781 182.328 163.888 182.201C164 181.996 164.071 181.766 164.095 181.528C164.206 181.072 164.442 180.675 164.612 180.231C164.897 179.496 164.992 178.69 164.887 177.901C164.866 177.658 164.793 177.424 164.674 177.218C164.448 176.866 164.036 176.723 163.738 176.441C163.439 176.159 163.246 175.73 162.898 175.519C162.567 175.358 162.196 175.322 161.844 175.417C161.148 175.547 160.48 175.822 159.877 176.225C159.682 176.362 159.451 176.518 159.219 176.471C159.02 176.401 158.849 176.258 158.735 176.065C158.569 176.484 158.497 176.94 158.526 177.395C158.536 177.461 158.536 177.529 158.526 177.595C158.496 177.675 158.452 177.748 158.396 177.809C158.185 178.076 158.054 178.498 158.261 178.767C158.353 178.884 158.491 178.948 158.579 179.068C158.737 179.281 158.683 179.591 158.679 179.866C158.671 179.961 158.693 180.057 158.741 180.137C158.787 180.183 158.843 180.216 158.903 180.231C158.964 180.247 159.027 180.245 159.087 180.227C159.205 180.188 159.33 180.175 159.453 180.188C159.585 180.236 159.697 180.331 159.774 180.457C160.16 181.004 160.314 181.603 160.48 182.263Z" fill="#2D293D"/>
<g opacity="0.1">
<path opacity="0.1" d="M163.958 181.966C163.852 182.093 163.717 182.189 163.568 182.243C162.787 182.604 161.893 182.561 161.042 182.504C160.951 182.506 160.861 182.484 160.779 182.44C160.66 182.338 160.582 182.191 160.56 182.028C160.394 181.368 160.242 180.767 159.848 180.22C159.772 180.093 159.659 179.999 159.528 179.951C159.404 179.938 159.28 179.951 159.161 179.99C159.101 180.008 159.038 180.01 158.977 179.994C158.917 179.979 158.861 179.946 158.815 179.9C158.767 179.82 158.746 179.724 158.755 179.629C158.755 179.354 158.811 179.044 158.653 178.831C158.565 178.712 158.427 178.647 158.335 178.53C158.276 178.442 158.241 178.339 158.231 178.231C158.222 178.123 158.24 178.014 158.282 177.915C158.132 178.176 158.068 178.509 158.241 178.735C158.333 178.852 158.472 178.916 158.56 179.036C158.718 179.249 158.663 179.559 158.659 179.834C158.652 179.929 158.674 180.025 158.722 180.105C158.767 180.151 158.823 180.184 158.884 180.2C158.944 180.215 159.007 180.214 159.067 180.195C159.186 180.156 159.311 180.143 159.434 180.156C159.565 180.204 159.678 180.299 159.754 180.425C160.144 180.974 160.301 181.573 160.466 182.233C160.488 182.396 160.566 182.544 160.683 182.647C160.765 182.689 160.855 182.711 160.947 182.711C161.799 182.768 162.686 182.809 163.484 182.45C163.633 182.394 163.767 182.298 163.874 182.171C163.927 182.097 163.968 182.013 163.995 181.923C163.983 181.938 163.976 181.955 163.958 181.966Z" fill="black"/>
<path opacity="0.1" d="M158.529 177.514C158.567 177.47 158.597 177.417 158.615 177.358C158.624 177.292 158.624 177.224 158.615 177.158C158.59 176.784 158.635 176.408 158.745 176.052L158.73 176.033C158.563 176.451 158.491 176.908 158.521 177.363C158.527 177.413 158.53 177.464 158.529 177.514V177.514Z" fill="black"/>
</g>
<path opacity="0.1" d="M159.98 184.115C159.98 184.115 163.472 184.621 163.786 184.047Z" fill="black"/>
<path opacity="0.1" d="M166.769 182.536C166.769 182.536 168.707 182.536 169.134 183.334Z" fill="black"/>
<path d="M76.2132 210.613V209.018C75.7506 209.002 75.2721 208.718 74.993 208.323L75.1844 207.265C75.5161 207.699 75.9183 207.936 76.3328 207.944C76.899 207.944 77.2818 207.297 77.2818 206.397C77.2818 205.528 76.9708 204.991 76.3806 204.518C75.5672 203.886 75.0648 203.159 75.0648 201.786C75.0648 200.475 75.5353 199.48 76.269 199.243V197.648H76.7634V199.18C77.1321 199.189 77.4917 199.381 77.8002 199.733L77.6008 200.775C77.305 200.422 76.9544 200.235 76.596 200.238C75.9819 200.238 75.7506 200.964 75.7506 201.596C75.7506 202.417 76.0457 202.828 76.7395 203.396C77.5609 204.06 77.9756 204.881 77.9756 206.286C77.9756 207.534 77.537 208.702 76.7156 208.971V210.613H76.2132Z" fill="#149F82"/>
<path d="M132.916 177.714V176.119C131.875 176.103 130.799 175.819 130.171 175.424L130.601 174.366C131.348 174.799 132.253 175.037 133.185 175.045C134.459 175.045 135.32 174.397 135.32 173.497C135.32 172.629 134.621 172.092 133.293 171.618C131.463 170.986 130.332 170.26 130.332 168.886C130.332 167.575 131.391 166.581 133.042 166.344V164.749H134.154V166.281C134.984 166.289 135.793 166.481 136.487 166.833L136.038 167.876C135.373 167.523 134.584 167.335 133.777 167.339C132.396 167.339 131.875 168.065 131.875 168.697C131.875 169.518 132.539 169.928 134.1 170.497C135.948 171.16 136.882 171.981 136.882 173.387C136.882 174.634 135.895 175.803 134.046 176.071V177.714H132.916Z" fill="#149F82"/>
<path d="M100.49 96.5308V95.0266C99.5354 95.0118 98.5475 94.7436 97.9712 94.3713L98.3663 93.3734C99.0512 93.7821 99.8817 94.0064 100.737 94.0138C101.907 94.0138 102.697 93.4032 102.697 92.5543C102.697 91.7351 102.055 91.2288 100.836 90.7819C99.1567 90.1862 98.1194 89.5011 98.1194 88.2054C98.1194 86.9692 99.0909 86.031 100.606 85.8076V84.3033H101.627V85.748C102.388 85.7563 103.13 85.9371 103.767 86.2693L103.355 87.2522C102.745 86.9194 102.021 86.7427 101.281 86.7458C100.013 86.7458 99.5354 87.4309 99.5354 88.0267C99.5354 88.8011 100.145 89.1883 101.577 89.7246C103.273 90.3501 104.129 91.1245 104.129 92.45C104.129 93.6266 103.224 94.7288 101.528 94.9818V96.5308H100.49Z" fill="#149F82"/>
<path d="M130.503 127.62V126.116C129.548 126.101 128.56 125.833 127.983 125.46L128.379 124.462C129.063 124.871 129.894 125.095 130.75 125.103C131.919 125.103 132.709 124.492 132.709 123.643C132.709 122.824 132.067 122.318 130.848 121.871C129.169 121.275 128.132 120.59 128.132 119.294C128.132 118.058 129.103 117.12 130.618 116.897V115.392H131.639V116.837C132.4 116.845 133.143 117.026 133.779 117.358L133.368 118.341C132.757 118.008 132.033 117.832 131.293 117.835C130.025 117.835 129.548 118.52 129.548 119.116C129.548 119.89 130.157 120.277 131.59 120.814C133.285 121.439 134.142 122.214 134.142 123.539C134.142 124.716 133.236 125.818 131.54 126.071V127.62H130.503Z" fill="#149F82"/>
<path d="M191.52 205.234V203.546C190.445 203.529 189.333 203.228 188.684 202.81L189.129 201.69C189.9 202.149 190.834 202.401 191.798 202.409C193.113 202.409 194.003 201.724 194.003 200.771C194.003 199.852 193.28 199.283 191.909 198.782C190.018 198.113 188.851 197.344 188.851 195.89C188.851 194.503 189.944 193.45 191.649 193.199V191.511H192.798V193.132C193.655 193.141 194.491 193.344 195.208 193.717L194.744 194.82C194.057 194.447 193.242 194.248 192.409 194.252C190.982 194.252 190.445 195.021 190.445 195.689C190.445 196.559 191.13 196.993 192.743 197.595C194.652 198.297 195.615 199.166 195.615 200.654C195.615 201.974 194.596 203.211 192.687 203.495V205.234H191.52Z" fill="#149F82"/>
<path d="M231.768 166.809V163.882C229.887 163.853 227.941 163.332 226.806 162.607L227.584 160.666C228.933 161.461 230.569 161.897 232.254 161.912C234.557 161.912 236.114 160.724 236.114 159.073C236.114 157.479 234.849 156.494 232.449 155.625C229.141 154.466 227.098 153.133 227.098 150.612C227.098 148.207 229.011 146.382 231.995 145.948V143.021H234.005V145.832C235.505 145.848 236.967 146.2 238.222 146.846L237.411 148.758C236.208 148.11 234.782 147.767 233.324 147.773C230.827 147.773 229.887 149.106 229.887 150.265C229.887 151.771 231.087 152.525 233.908 153.568C237.249 154.785 238.935 156.291 238.935 158.87C238.935 161.159 237.151 163.303 233.811 163.795V166.809H231.768Z" fill="#149F82"/>
</g>
<g clip-path="url(#clip1)">
<path opacity="0.2" d="M722.541 245.807C719.108 246.874 715.895 249.457 715.038 253.041C714.057 257.161 716.319 261.313 716.646 265.542C717.701 279.399 698.542 289.176 701.275 302.788C702.36 308.2 706.747 312.181 711.069 315.47C717.994 320.723 725.676 325.363 734.184 326.672C747.097 328.663 760.59 322.813 773.141 326.51C783.265 329.493 791.012 338.236 801.066 341.462C808.719 343.918 816.965 342.95 824.915 341.955C829.203 341.42 833.694 340.803 837.153 338.156C843.584 333.229 843.989 323.499 848.295 316.526C854.946 305.774 869.529 303.662 881.756 305.752C893.984 307.841 905.857 312.986 918.245 312.567C920.893 312.476 923.605 312.107 925.915 310.77C928.723 309.146 930.62 306.284 932.298 303.452C942.782 285.688 948.537 265.397 948.984 244.619C949.056 241.048 948.933 237.323 947.301 234.172C945.238 230.185 941.114 227.8 937.008 226.196C927.15 222.336 916.26 221.704 906.6 217.351C897.282 213.152 889.736 205.788 881.622 199.477C865.453 186.924 846.711 178.336 826.826 174.368C822.166 173.441 817.329 172.78 812.699 173.849C807.363 175.082 802.765 178.503 798.63 182.187C787.63 191.986 778.814 204.075 768.677 214.814C761.684 222.22 754.069 228.977 745.921 235.005C742.17 237.786 738.182 241.089 734.002 243.146C730.175 245.027 726.587 244.552 722.541 245.807Z" fill="#149F82"/>
</g>
<path opacity="0.5" d="M370.369 332.989C351.989 325.341 330.974 318.867 313.801 329.858C311.625 331.251 309.48 333.004 308.307 335.614C305.21 342.479 310.133 351.381 307.734 358.638C305.334 365.894 296.304 369.547 297.043 377.299C297.237 379.325 298.149 381.159 299.223 382.74C305.949 392.637 318.281 393.638 328.705 391.182C339.128 388.726 349.322 383.634 359.933 384.275C370.13 384.908 379.512 390.798 388.855 395.756C404.606 404.137 423.002 410.15 438.741 401.727C445.952 397.867 451.914 391.293 458.816 386.704C468.118 380.576 478.809 378.214 489.312 379.966C496.322 381.155 503.014 384.148 509.875 386.213C525.457 390.898 541.721 390.745 557.779 390.561C560.768 390.526 563.804 390.484 566.669 389.455C570.911 387.92 574.409 384.386 577.778 380.929C582.204 376.389 586.866 371.401 588.293 364.612C589.979 356.554 586.49 347.989 581.315 342.513C576.14 337.037 569.524 334.044 563.068 331.158C561.475 330.452 559.773 329.735 558.142 330.268C557.071 330.621 556.169 331.481 555.37 332.406C550.787 337.716 546.916 346.7 540.667 345.257C538.436 344.743 536.61 342.874 534.845 341.147C525.419 331.937 512.739 324.827 501.363 329.915C493.043 333.637 487.17 343.196 478.739 346.569C472.741 348.971 466.225 347.932 459.915 348.4C450.738 349.075 441.806 352.981 432.616 352.744C409.182 352.137 389.658 325.153 366.319 327.724C364.49 327.924 362.495 328.43 361.374 330.172" fill="#9CC1BA"/>
<defs>
<linearGradient id="paint0_linear" x1="157.412" y1="238.675" x2="157.412" y2="174.512" gradientUnits="userSpaceOnUse">
<stop stop-color="#808080" stop-opacity="0.25"/>
<stop offset="0.54" stop-color="#808080" stop-opacity="0.12"/>
<stop offset="1" stop-color="#808080" stop-opacity="0.1"/>
</linearGradient>
<clipPath id="clip0">
<rect width="214" height="172" fill="white" transform="translate(31 68)"/>
</clipPath>
<clipPath id="clip1">
<rect width="261" height="197" fill="white" transform="translate(688 146)"/>
</clipPath>
</defs>
</svg>
