<svg width="1043" height="467" viewBox="0 0 1043 467" fill="none" xmlns="http://www.w3.org/2000/svg">
<rect width="1043" height="467" fill="#E5E5E5"/>
<rect y="7" width="1043" height="444" fill="#152445"/>
<line x1="103.15" y1="7" x2="103.15" y2="451" stroke="#149F82" stroke-opacity="0.3" stroke-width="0.3"/>
<line x1="200.15" y1="6.55671e-09" x2="200.15" y2="444" stroke="#149F82" stroke-opacity="0.3" stroke-width="0.3"/>
<line x1="879.15" y1="7" x2="879.15" y2="451" stroke="#149F82" stroke-opacity="0.3" stroke-width="0.3"/>
<line x1="782.15" y1="7" x2="782.15" y2="451" stroke="#149F82" stroke-opacity="0.3" stroke-width="0.3"/>
<line x1="491.15" y1="7" x2="491.15" y2="451" stroke="#149F82" stroke-opacity="0.3" stroke-width="0.3"/>
<line x1="976.15" y1="23" x2="976.15" y2="467" stroke="#149F82" stroke-opacity="0.3" stroke-width="0.3"/>
<line x1="588.15" y1="7" x2="588.15" y2="451" stroke="#149F82" stroke-opacity="0.3" stroke-width="0.3"/>
<line x1="685.15" y1="7" x2="685.15" y2="451" stroke="#149F82" stroke-opacity="0.3" stroke-width="0.3"/>
<line x1="394.15" y1="7" x2="394.15" y2="451" stroke="#149F82" stroke-opacity="0.3" stroke-width="0.3"/>
<line x1="297.15" y1="7" x2="297.15" y2="451" stroke="#149F82" stroke-opacity="0.3" stroke-width="0.3"/>
<line x1="-1.31134e-08" y1="58.85" x2="1043" y2="58.8499" stroke="#E5E5E5" stroke-opacity="0.3" stroke-width="0.3"/>
<line x1="-1.31134e-08" y1="130.85" x2="1043" y2="130.85" stroke="#E5E5E5" stroke-opacity="0.3" stroke-width="0.3"/>
<line x1="-1.31134e-08" y1="202.85" x2="1043" y2="202.85" stroke="#E5E5E5" stroke-opacity="0.3" stroke-width="0.3"/>
<line x1="-1.31134e-08" y1="346.85" x2="1043" y2="346.85" stroke="#E5E5E5" stroke-opacity="0.3" stroke-width="0.3"/>
<line x1="-1.31134e-08" y1="416.85" x2="1043" y2="416.85" stroke="#E5E5E5" stroke-opacity="0.3" stroke-width="0.3"/>
<line x1="1.31134e-08" y1="276.85" x2="1035" y2="276.85" stroke="#E5E5E5" stroke-opacity="0.3" stroke-width="0.3"/>
</svg>
