<svg width="602" height="397" viewBox="0 0 602 397" fill="none" xmlns="http://www.w3.org/2000/svg">
<rect width="602" height="397" fill="#E5E5E5"/>
<rect y="77" width="351" height="320" fill="white"/>
<g clip-path="url(#clip0)">
<path opacity="0.2" d="M256.178 214.672L233.727 207.555L227.729 234.198L250.18 241.315L256.178 214.672Z" fill="#DCF8F5"/>
<path d="M287.477 321.886C269.53 354.545 274.448 396.083 274.448 396.083C274.448 396.083 308.461 384.671 326.408 352.011C344.354 319.352 339.436 277.813 339.436 277.813C339.436 277.813 305.423 289.226 287.477 321.886Z" fill="#F1FCFB"/>
<path d="M274.352 395.703C274.352 395.703 273.915 395.621 273.111 395.428C272.47 395.273 271.587 395.053 270.509 394.749C260.869 392.052 235.242 382.935 218.487 358.966C197.517 328.951 198.4 287.018 198.4 287.018C198.4 287.018 230.464 293.2 251.593 320.154C252.508 321.312 253.399 322.513 254.265 323.756C272.512 349.871 274.213 385.009 274.348 393.696C274.366 394.998 274.352 395.703 274.352 395.703Z" fill="#F1FCFB"/>
<path d="M261.419 321.886C279.365 354.545 274.448 396.083 274.448 396.083C274.448 396.083 240.434 384.671 222.488 352.011C204.542 319.352 209.459 277.813 209.459 277.813C209.459 277.813 243.473 289.226 261.419 321.886Z" stroke="#DCF8F5" stroke-width="2" stroke-miterlimit="10"/>
<path opacity="0.1" d="M274.348 393.696C273.874 394.374 273.455 394.953 273.111 395.428C272.349 396.459 271.917 397 271.917 397C271.917 397 271.392 396.216 270.509 394.749C265.661 386.73 250.068 358.216 251.272 325.278C251.337 323.551 251.444 321.844 251.593 320.154C252.508 321.312 253.399 322.513 254.265 323.756C272.512 349.871 274.213 385.009 274.348 393.696Z" fill="black"/>
<path d="M300.957 327.66C299.539 366.613 275.172 397 275.172 397C275.172 397 253.105 364.232 254.524 325.279C255.942 286.325 280.309 255.938 280.309 255.938C280.309 255.938 302.376 288.707 300.957 327.66Z" fill="#E8F9F7"/>
<path d="M214.499 213.721C213.08 252.675 188.714 283.062 188.714 283.062C188.714 283.062 166.647 250.293 168.066 211.34C169.484 172.387 193.851 142 193.851 142C193.851 142 215.917 174.768 214.499 213.721Z" fill="#F1FFFE"/>
<path d="M164.55 340.403C166.228 340.403 167.588 338.79 167.588 336.799C167.588 334.808 166.228 333.194 164.55 333.194C162.873 333.194 161.513 334.808 161.513 336.799C161.513 338.79 162.873 340.403 164.55 340.403Z" fill="#DCF8F5"/>
<path d="M224.757 395.963H351.638" stroke="#E5E5E5" stroke-width="2" stroke-miterlimit="10"/>
<path d="M149 395.963H208.955" stroke="#DCF8F5" stroke-width="2" stroke-miterlimit="10"/>
<path d="M179.432 396.626V355.585" stroke="#DCF8F5" stroke-width="2" stroke-miterlimit="10"/>
<path d="M179.432 361.389C182.133 361.389 184.322 358.79 184.322 355.585C184.322 352.38 182.133 349.781 179.432 349.781C176.731 349.781 174.541 352.38 174.541 355.585C174.541 358.79 176.731 361.389 179.432 361.389Z" fill="#F1FFFE"/>
<path d="M179.432 380.879C179.432 380.879 178.733 363.047 164.41 365.12Z" fill="#F1FFFE"/>
<path d="M277.624 246.869C282.832 246.869 287.054 241.86 287.054 235.679C287.054 229.499 282.832 224.489 277.624 224.489C272.416 224.489 268.195 229.499 268.195 235.679C268.195 241.86 272.416 246.869 277.624 246.869Z" fill="#F1FFFE"/>
<path d="M248.05 243.818C251.837 243.818 254.907 240.174 254.907 235.679C254.907 231.185 251.837 227.541 248.05 227.541C244.262 227.541 241.192 231.185 241.192 235.679C241.192 240.174 244.262 243.818 248.05 243.818Z" stroke="#DCF8F5" stroke-width="2" stroke-miterlimit="10"/>
<path d="M307.199 243.818C310.986 243.818 314.057 240.174 314.057 235.679C314.057 231.185 310.986 227.541 307.199 227.541C303.411 227.541 300.341 231.185 300.341 235.679C300.341 240.174 303.411 243.818 307.199 243.818Z" stroke="#DCF8F5" stroke-width="2" stroke-miterlimit="10"/>
<path d="M275.172 395.897L280.529 257.527" stroke="#E5E5E5" stroke-width="2" stroke-miterlimit="10"/>
</g>
<path d="M116.958 210.686C116.958 210.686 116.521 210.603 115.717 210.41C115.075 210.256 114.192 210.035 113.114 209.732C103.475 207.035 77.8474 197.918 61.0925 173.948C40.1223 143.933 41.0053 102 41.0053 102C41.0053 102 73.0696 108.183 94.1979 135.136C95.1135 136.295 96.0043 137.495 96.8703 138.738C115.117 164.853 116.818 199.992 116.953 208.678C116.971 209.98 116.958 210.686 116.958 210.686Z" fill="#F1FCFB"/>
<defs>
<clipPath id="clip0">
<rect width="453" height="397" fill="white" transform="translate(149)"/>
</clipPath>
</defs>
</svg>
