<svg width="1043" height="479" viewBox="0 0 1043 479" fill="none" xmlns="http://www.w3.org/2000/svg">
<rect width="1043" height="479" fill="#E5E5E5"/>
<rect y="1" width="1043" height="462" fill="#152445"/>
<line x1="103.15" y1="1" x2="103.15" y2="463" stroke="#149F82" stroke-opacity="0.3" stroke-width="0.3"/>
<line x1="200.15" y1="1" x2="200.15" y2="456" stroke="#149F82" stroke-opacity="0.3" stroke-width="0.3"/>
<line x1="879.15" y1="1" x2="879.15" y2="463" stroke="#149F82" stroke-opacity="0.3" stroke-width="0.3"/>
<line x1="782.15" y1="1" x2="782.15" y2="463" stroke="#149F82" stroke-opacity="0.3" stroke-width="0.3"/>
<line x1="491.15" y1="1" x2="491.15" y2="463" stroke="#149F82" stroke-opacity="0.3" stroke-width="0.3"/>
<line x1="972.15" y1="0.998745" x2="976.15" y2="478.999" stroke="#149F82" stroke-opacity="0.3" stroke-width="0.3"/>
<line x1="588.15" y1="1" x2="588.15" y2="462" stroke="#149F82" stroke-opacity="0.3" stroke-width="0.3"/>
<line x1="685.15" y1="1" x2="685.15" y2="463" stroke="#149F82" stroke-opacity="0.3" stroke-width="0.3"/>
<line x1="394.15" y1="1" x2="394.15" y2="463" stroke="#149F82" stroke-opacity="0.3" stroke-width="0.3"/>
<line x1="297.15" y1="1" x2="297.15" y2="463" stroke="#149F82" stroke-opacity="0.3" stroke-width="0.3"/>
<line x1="-1.31134e-08" y1="70.85" x2="1043" y2="70.8499" stroke="#E5E5E5" stroke-opacity="0.3" stroke-width="0.3"/>
<line x1="-1.31134e-08" y1="142.85" x2="1043" y2="142.85" stroke="#E5E5E5" stroke-opacity="0.3" stroke-width="0.3"/>
<line x1="-1.31134e-08" y1="214.85" x2="1043" y2="214.85" stroke="#E5E5E5" stroke-opacity="0.3" stroke-width="0.3"/>
<line x1="-1.31134e-08" y1="358.85" x2="1043" y2="358.85" stroke="#E5E5E5" stroke-opacity="0.3" stroke-width="0.3"/>
<line x1="-1.31134e-08" y1="428.85" x2="1043" y2="428.85" stroke="#E5E5E5" stroke-opacity="0.3" stroke-width="0.3"/>
<line x1="1.31134e-08" y1="288.85" x2="1035" y2="288.85" stroke="#E5E5E5" stroke-opacity="0.3" stroke-width="0.3"/>
<circle cx="103" cy="215" r="4" fill="#C4C4C4" fill-opacity="0.1"/>
<circle cx="200" cy="71" r="4" fill="#C4C4C4" fill-opacity="0.1"/>
<circle cx="103" cy="291" r="4" fill="#C4C4C4" fill-opacity="0.1"/>
<circle cx="976" cy="145" r="4" fill="#C4C4C4" fill-opacity="0.1"/>
<circle cx="782" cy="143" r="4" fill="#C4C4C4" fill-opacity="0.1"/>
<circle cx="685" cy="359" r="4" fill="#C4C4C4" fill-opacity="0.1"/>
<circle cx="685" cy="291" r="4" fill="#C4C4C4" fill-opacity="0.1"/>
<circle cx="685" cy="215" r="4" fill="#C4C4C4" fill-opacity="0.1"/>
<circle cx="782" cy="215" r="4" fill="#C4C4C4" fill-opacity="0.1"/>
<circle cx="782" cy="291" r="4" fill="#C4C4C4" fill-opacity="0.1"/>
<circle cx="782" cy="359" r="4" fill="#C4C4C4" fill-opacity="0.1"/>
<circle cx="879" cy="427" r="4" fill="#C4C4C4" fill-opacity="0.1"/>
<circle cx="879" cy="359" r="4" fill="#C4C4C4" fill-opacity="0.1"/>
<circle cx="879" cy="291" r="4" fill="#C4C4C4" fill-opacity="0.1"/>
<circle cx="879" cy="216" r="4" fill="#C4C4C4" fill-opacity="0.1"/>
<circle cx="879" cy="141" r="4" fill="#C4C4C4" fill-opacity="0.1"/>
<circle cx="879" cy="71" r="4" fill="#C4C4C4" fill-opacity="0.1"/>
<circle cx="976" cy="215" r="4" fill="#C4C4C4" fill-opacity="0.1"/>
<circle cx="976" cy="291" r="4" fill="#C4C4C4" fill-opacity="0.1"/>
<circle cx="976" cy="359" r="4" fill="#C4C4C4" fill-opacity="0.1"/>
<circle cx="394" cy="143" r="4" fill="#C4C4C4" fill-opacity="0.1"/>
<circle cx="103" cy="141" r="4" fill="#C4C4C4" fill-opacity="0.1"/>
<circle cx="103" cy="359" r="4" fill="#C4C4C4" fill-opacity="0.1"/>
<circle cx="200" cy="427" r="4" fill="#C4C4C4" fill-opacity="0.1"/>
<circle cx="200" cy="141" r="4" fill="#C4C4C4" fill-opacity="0.1"/>
<circle cx="297" cy="215" r="4" fill="#C4C4C4" fill-opacity="0.1"/>
<circle cx="299" cy="291" r="4" fill="#C4C4C4" fill-opacity="0.1"/>
<circle cx="200" cy="359" r="4" fill="#C4C4C4" fill-opacity="0.1"/>
<circle cx="200" cy="291" r="4" fill="#C4C4C4" fill-opacity="0.1"/>
<circle cx="297" cy="359" r="4" fill="#C4C4C4" fill-opacity="0.1"/>
<circle cx="394" cy="215" r="4" fill="#C4C4C4" fill-opacity="0.1"/>
<circle cx="297" cy="141" r="4" fill="#C4C4C4" fill-opacity="0.1"/>
<circle cx="394" cy="291" r="4" fill="#C4C4C4" fill-opacity="0.1"/>
<circle cx="200" cy="215" r="4" fill="#C4C4C4" fill-opacity="0.1"/>
</svg>
